<svg width="191" height="62" fill="none" xmlns="http://www.w3.org/2000/svg"><path d="M185.524 32.876a73.546 73.546 0 00-15.362-11.549c-3.54-2.09-7.559-4.248-11.909-6.412a112.062 112.062 0 00-14.366-6.035 63.597 63.597 0 00-8.109-2.144 48.238 48.238 0 00-8.641-.992 37.536 37.536 0 00-8.868.74 33.081 33.081 0 00-8.517 2.86l-.44.234c.118.123.266.231.399.355a31.734 31.734 0 019.552 17.63c.571 3.435.44 6.951-.386 10.334a21.369 21.369 0 01-5.09 9.477 18.048 18.048 0 01-4.398 3.661 14.086 14.086 0 01-6.049 1.971 14.766 14.766 0 01-6.12-.922 14.814 14.814 0 01-5.212-3.35 16.256 16.256 0 01-4.717-9.977 26.552 26.552 0 01.971-10.278 33.271 33.271 0 014.29-9.235 37.468 37.468 0 018.738-9.182 21.647 21.647 0 00-2.562-1.316 38.087 38.087 0 00-16.477-3.221 52.154 52.154 0 00-15.52 2.73 56.588 56.588 0 00-12.467 5.911 65.272 65.272 0 00-9.156 7.378 84.182 84.182 0 00-11.895 14.03 81.82 81.82 0 00-6.21 10.693c-1.424 2.993-2.351 5.21-3.03 6.948-.614 1.498-.978 2.503-1.293 3.267l1.02-.69a225.12 225.12 0 017.852-5.108c4.561-2.798 7.597-4.387 7.964-3.867.366.52-1.931 2.803-5.993 6.199-2.03 1.713-4.488 3.675-7.263 5.813l-1.052.81c-.45.354-.928.668-1.43.94a6.317 6.317 0 01-1.016.419c-.444.14-.906.218-1.372.23a4.496 4.496 0 01-2.691-.804 9.77 9.77 0 01-2.385-2.762l-1.625-2.34C5.91 42.174-.393 31.02.67 30.422c1.064-.6 9.055 9.559 17.847 22.706l1.141 1.743c.124-.879.306-1.748.544-2.602a52.374 52.374 0 012.544-7.5 71.037 71.037 0 016.06-11.527 82.939 82.939 0 0112.305-15.064 68.703 68.703 0 019.965-8.042A60.954 60.954 0 0164.833 3.57 57.364 57.364 0 0182.132.556a43.673 43.673 0 0119.037 3.828 27.899 27.899 0 014.909 2.809c.593-.321 1.185-.643 1.791-.918a37.466 37.466 0 019.588-3.082 41.923 41.923 0 019.754-.618 51.3 51.3 0 019.252 1.26 66.021 66.021 0 018.42 2.406 107.996 107.996 0 0114.552 6.537c4.377 2.326 8.344 4.62 11.9 6.88a66.524 66.524 0 0114.998 12.554 34.008 34.008 0 013.095 4.194c.597 1.023.874 1.526.797 1.615-.077.09-1.588-1.947-4.731-5.145h.03zm-79.667-19.362c-.37-.354-.77-.678-1.17-1.003a33.48 33.48 0 00-8.417 8.901 29.628 29.628 0 00-3.654 8.205 22.549 22.549 0 00-.703 8.758 12.098 12.098 0 003.593 7.344 9.781 9.781 0 003.433 2.212 9.75 9.75 0 004.032.614 11.187 11.187 0 006.975-4.066 16.948 16.948 0 003.943-7.566c.623-2.802.677-5.702.157-8.526a26.415 26.415 0 00-2.857-8.1 25.644 25.644 0 00-5.302-6.772" fill="#BBD7FF"/></svg>