<svg width="43" height="64" fill="none" xmlns="http://www.w3.org/2000/svg"><path d="M42.765 24.234c-.042-.358-.303-.663-.68-.799a1.24 1.24 0 00-1.125.147c-.132.095-2.108 1.526-4.803 4.035v-.286c0-.75-.32-1.436-.851-1.952.526-.52.851-1.202.851-1.951v-2.193c0-.75-.32-1.435-.851-1.951.526-.52.851-1.202.851-1.951V15.14c0-1.616-1.493-2.93-3.328-2.93h-1.377a2.58 2.58 0 00.193-.976V9.04c0-1.616-1.493-2.93-3.328-2.93H26.94a2.58 2.58 0 00.192-.976V2.93c0-1.615-1.492-2.93-3.328-2.93h-4.589c-1.835 0-3.328 1.315-3.328 2.93v2.193c0 .343.069.67.193.976h-1.377c-1.835 0-3.328 1.315-3.328 2.93v2.193c0 .343.068.67.192.976H10.19c-1.835 0-3.328 1.315-3.328 2.93v2.193c0 .75.321 1.436.852 1.952-.527.52-.852 1.201-.852 1.951v2.193c0 .75.321 1.435.852 1.95-.527.52-.852 1.203-.852 1.952v.287c-2.694-2.513-4.67-3.94-4.803-4.035a1.24 1.24 0 00-1.125-.147c-.376.136-.637.445-.68.799-.026.2-.577 4.98.03 10.981.83 8.145 3.323 14.304 7.417 18.304 2.207 2.16 4.859 3.65 7.921 4.465v5.051c0 .539.496.976 1.108.976h9.538c.612 0 1.108-.437 1.108-.976v-5.051c3.063-.81 5.714-2.302 7.921-4.465 4.094-4.004 6.587-10.16 7.417-18.304.612-6.001.056-10.782.03-10.981l.021.011zM26.888 38.421a2.501 2.501 0 00-.124-.233c.073.033.142.064.219.094-.03.045-.065.094-.095.14zM9.087 23.424v-2.192c0-.54.496-.976 1.107-.976h4.59c.611 0 1.108.437 1.108.976v2.192c0 .539-.496.976-1.108.976h-4.59c-.611 0-1.107-.437-1.107-.976zm9.024-8.295c0-.539.497-.976 1.108-.976h4.59c.611 0 1.108.437 1.108.976v2.192c0 .539-.497.976-1.108.976h-4.59c-.611 0-1.108-.437-1.108-.976V15.13zm15.83 6.099v2.192c0 .539-.496.976-1.107.976h-4.59c-.611 0-1.108-.437-1.108-.976v-2.192c0-.539.497-.976 1.108-.976h4.59c.611 0 1.107.437 1.107.976zm-15.83 2.192v-2.192c0-.539.497-.976 1.108-.976h4.59c.611 0 1.108.437 1.108.976v2.192c0 .539-.497.976-1.108.976h-4.59c-.611 0-1.108-.437-1.108-.976zm0 3.907c0-.539.497-.976 1.108-.976h4.59c.611 0 1.108.437 1.108.976v2.192c0 .539-.497.976-1.108.976h-4.59c-.611 0-1.108-.437-1.108-.976v-2.192zm0 8.295V33.43c0-.54.497-.976 1.108-.976h4.59c.611 0 1.108.437 1.108.976v2.192c0 .539-.497.976-1.108.976h-4.59c-.611 0-1.108-.437-1.108-.976zm-2.215-2.042v1.891c0 .547-.445 1.006-1.03 1.108a57.356 57.356 0 00-3.303-4.125h3.054c.706 0 1.283.505 1.283 1.13l-.004-.004zm.154 4.698c.073-.03.145-.06.218-.094a4.177 4.177 0 00-.124.233l-.094-.14zm8.405 4.238c-.18.113-.402.18-.642.18h-4.59c-.239 0-.461-.067-.641-.18-.15-.286-.308-.576-.466-.863V39.53c0-.54.496-.976 1.108-.976h4.589c.612 0 1.108.437 1.108.976v2.124c-.158.287-.317.577-.466.863zm-1.044 2.136a36.04 36.04 0 00-1.895 5.191 36.063 36.063 0 00-1.895-5.191h3.79zm4.756-8.073c-.586-.102-1.03-.561-1.03-1.108v-1.89c0-.622.573-1.13 1.283-1.13h3.053a60.07 60.07 0 00-3.302 4.125l-.004.003zm5.193-6.197a1.223 1.223 0 01-.526.117h-4.59c-.611 0-1.108-.437-1.108-.976v-2.192c0-.54.497-.976 1.108-.976h4.59c.611 0 1.107.437 1.107.976v2.192a.813.813 0 01-.064.32c-.17.177-.346.354-.517.539zm.581-15.253v2.192c0 .539-.496.976-1.107.976h-4.59c-.611 0-1.108-.437-1.108-.976V15.13c0-.539.497-.976 1.108-.976h4.59c.611 0 1.107.437 1.107.976zm-4.512-6.1v2.193c0 .539-.496.976-1.108.976h-4.59c-.61 0-1.107-.437-1.107-.976V9.03c0-.539.496-.976 1.108-.976h4.59c.61 0 1.107.437 1.107.976zM18.112 5.124V2.931c0-.539.496-.976 1.107-.976h4.59c.611 0 1.108.437 1.108.976v2.192c0 .539-.497.976-1.108.976h-4.59c-.611 0-1.108-.437-1.108-.976zm-4.513 6.1V9.03c0-.539.496-.976 1.108-.976h4.59c.61 0 1.107.437 1.107.976v2.192c0 .539-.496.976-1.108.976h-4.59c-.61 0-1.107-.437-1.107-.976zM9.087 15.13c0-.539.496-.976 1.107-.976h4.59c.611 0 1.108.437 1.108.976v2.192c0 .539-.496.976-1.108.976h-4.59c-.611 0-1.107-.437-1.107-.976V15.13zm0 14.394v-2.192c0-.54.496-.976 1.107-.976h4.59c.611 0 1.108.437 1.108.976v2.192c0 .539-.496.976-1.108.976h-4.59c-.192 0-.372-.042-.526-.117-.175-.18-.346-.362-.517-.539a.897.897 0 01-.064-.32zm.278 22.693c-7.302-7.138-7.319-20.772-7.045-25.83a63.21 63.21 0 014.953 4.535c.218.354.522.663.881.911a59.202 59.202 0 012.395 2.679c1.793 2.128 3.722 4.735 5.394 7.707a2.81 2.81 0 00.761 1.42c2.002 3.896 3.495 8.337 3.679 13.091-4.474-.215-8.178-1.73-11.023-4.51l.005-.004zm15.812 6.491v3.353h-7.322v-3.353h7.322zm8.49-6.49c-2.844 2.78-6.548 4.294-11.022 4.509.189-4.755 1.681-9.196 3.679-13.091.389-.396.659-.882.761-1.42 1.664-2.954 3.576-5.55 5.36-7.667a59.023 59.023 0 012.433-2.72c.36-.244.659-.553.877-.907a63.913 63.913 0 014.957-4.536c.274 5.056.257 18.689-7.044 25.831z" fill="#74BFA1"/></svg>