<svg width="40" height="62" fill="none" xmlns="http://www.w3.org/2000/svg"><path d="M37.611 23.103c2.971-2.647 2.344-6.106 2.314-6.254l-.085-.443-.466-.217c-.115-.054-2.284-1.028-4.935-.407 1.661-4.775-1.088-8.457-1.208-8.616l-.328-.43-.606.012c-.158 0-3.16.086-5.866 2.185-.785-5.98-5.656-8.536-5.87-8.644L19.998 0l-.564.289c-.213.108-5.084 2.665-5.865 8.644-2.707-2.099-5.708-2.182-5.865-2.185l-.607-.011-.328.429c-.12.159-2.869 3.837-1.208 8.616-2.651-.62-4.82.357-4.935.407l-.466.217-.085.443c-.03.144-.657 3.607 2.314 6.254a8.004 8.004 0 003.667 1.843c-3.274 4.006-5.072 9.2-5.072 14.7s1.947 11.121 5.482 15.19c3.607 4.154 8.44 6.44 13.6 6.44 5.161 0 9.994-2.286 13.6-6.44 3.535-4.069 5.482-9.464 5.482-15.19 0-5.728-1.802-10.715-5.089-14.726a7.978 7.978 0 003.552-1.817zm.21-5.475c.025.866-.133 2.737-1.79 4.212-1.186 1.057-2.522 1.375-3.461 1.454a19.232 19.232 0 00-2.506-2.088 11.02 11.02 0 002.941-2.709c.141-.104.29-.205.444-.295 1.793-1.072 3.535-.805 4.371-.567v-.007zM15.14 20.712l3.39 2.863-7.975 6.737-3.645-3.08c2.1-3.047 4.956-5.352 8.23-6.524v.004zm2.335-.628a14.692 14.692 0 015.182 0l-2.59 2.19-2.592-2.19zm2.591 4.79l7.974 6.736-7.974 6.737-7.974-6.737 7.974-6.737zM9.014 31.61l-5.618 4.746c.389-2.694 1.238-5.207 2.46-7.418l3.158 2.672zm-5.848 8.537c0-.166-.005-.332-.005-.498 0-.166 0-.332.005-.498l7.385-6.239 7.974 6.737-7.974 6.737-7.39-6.243.005.004zm5.848 7.54L5.851 50.36c-1.221-2.21-2.07-4.724-2.459-7.418l5.618 4.746h.004zm11.052-6.736l7.974 6.737-7.974 6.736-7.974-6.736 7.974-6.737zm1.537-1.298l7.974-6.737 7.385 6.239c0 .166.005.332.005.498 0 .165 0 .331-.005.497l-7.385 6.24-7.974-6.737zm15.133 3.289c-.388 2.694-1.238 5.207-2.459 7.418l-3.163-2.672 5.618-4.746h.004zm-5.618-11.328l3.164-2.672c1.22 2.21 2.07 4.724 2.458 7.418l-5.618-4.746h-.004zm-1.537-1.299l-7.974-6.736 3.39-2.864c3.274 1.169 6.13 3.477 8.23 6.524l-3.645 3.08v-.003zm2.13-21.66c.602 1.057 1.776 3.733.534 6.921-.99 2.535-2.92 3.888-4.038 4.49a17.414 17.414 0 00-4.341-1.623c.862-1.18 2.3-3.577 2.608-6.719 1.75-2.272 4.12-2.895 5.233-3.069h.005zm-16.016.859c.397-4.166 3.116-6.474 4.311-7.296 1.196.822 3.915 3.13 4.312 7.296.474 4.995-2.74 8.533-2.775 8.565a17.389 17.389 0 00-3.1.018l.027-.018c-.034-.032-3.249-3.57-2.775-8.565zm-7.398-.859c1.118.17 3.483.797 5.233 3.07.312 3.166 1.772 5.575 2.63 6.747a17.39 17.39 0 00-4.294 1.63c-1.106-.584-3.095-1.94-4.103-4.522-1.242-3.188-.068-5.864.534-6.921v-.004zM3.964 21.837c-1.656-1.475-1.814-3.343-1.789-4.212.837-.235 2.579-.505 4.372.566.153.094.303.19.444.296A11.089 11.089 0 0010 21.241a19.35 19.35 0 00-2.507 2.106v-.054c-.935-.065-2.313-.372-3.53-1.457zm2.941 30.225l3.646-3.08 7.974 6.737-3.39 2.864c-3.274-1.169-6.13-3.477-8.23-6.524v.003zm10.566 7.148l2.59-2.189 2.592 2.19a14.683 14.683 0 01-5.182 0zm7.517-.627l-3.39-2.864 7.975-6.737 3.645 3.08c-2.1 3.048-4.956 5.352-8.23 6.524v-.003z" fill="#7BB8FF"/></svg>