<svg width="58" height="61" fill="none" xmlns="http://www.w3.org/2000/svg"><path d="M53.145 28.131a.643.643 0 00-.892-.433l-5.576 2.56c.048-.158 2.224-7.344 2.269-7.498.115-.4.314.093-8.227-13.318a.64.64 0 00-.956-.144l-12.57 10.688C24.752 9.003 24.941 9.558 24.723 9.34a.696.696 0 00-.17-.129L8.922 1.073a.642.642 0 00-.889.32L1.055 18.02c-.07.17-.08.363.013.546.064.131 8.659 16.258 8.73 16.386-3.289-.34-3.112-.35-3.321-.292a.66.66 0 00-.385.289c-.035.06-3.738 9.21-3.767 9.274a.644.644 0 00.138.692l14.73 14.896a.642.642 0 00.455.189H43.78a.64.64 0 00.494-.234c.074-.09 12.519-15.165 12.59-15.255a.481.481 0 00.096-.173c.109-.295.285.7-3.818-16.207h.003zM31.832 46.766l-3.227 10.56C20.41 34.484 22.8 41.14 16.667 24.049l7.327-12.529 7.835 35.246h.003zm6.741-17.663l8.666-5.124-2.118 6.994-8.28 3.8 1.732-5.67zm-1.293-.157c-2.855 9.344-1.835 6.006-4.687 15.331l-4.822-21.69c4.01 2.68-.6-.401 9.509 6.359zm-1.174 8.235l7.36 7.625-7.569 13.915H29.52l6.584-21.54h.003zm19.452 6.333l-11.043.532-7.614-7.888c6.135-2.816 8.923-4.095 15.182-6.965l3.475 14.321zm-15.525-32.76l7.398 11.621-9.378 5.548-10.193-6.818 12.173-10.351zM8.947 2.532l14.425 7.513c-1.765 3.015-6.006 10.265-7.687 13.141l-13.2-5.259L8.948 2.532zm6.507 21.94l4.12 11.487-8.243-.85-8.3-15.585c7.164 2.851 5.464 2.175 12.426 4.948h-.003zm4.6 12.827l7.684 21.422h-3.56L7.99 36.055l12.06 1.244h.004zm-16.38 7.017L6.8 36.597l15.801 22.127h-4.687L3.673 44.316zM43.475 58.72h-6.118l7.286-13.397 10.299-.494-11.467 13.895v-.003z" fill="#fff" stroke="#EB81F8" stroke-miterlimit="10"/></svg>