<svg width="329" height="328" fill="none" xmlns="http://www.w3.org/2000/svg"><path d="M4.31 182.238c1.361-17.072 5.918-33.463 13.536-48.699 7.89-15.779 18.772-29.654 32.307-41.217C63.688 80.76 79.059 72.19 95.927 66.884c16.256-5.169 33.123-7.073 50.195-5.713 17.072 1.36 33.464 5.917 48.699 13.535A127.153 127.153 0 01216.45 88.31c5.985 4.15 11.494 9.114 16.527 14.76 25.846 29.518 29.179 71.075 11.359 103.655 25.165-27.615 37.612-66.247 30.335-105.764C262.496 35.938 201.146-7.864 136.192 1.182c-28.77 4.965-56.52 17.616-80.054 38.224C9.14 80.556-8.816 142.585 4.038 199.514a146.601 146.601 0 01.205-17.276h.068z" fill="url(#paint0_linear_1166_2413)"/><path d="M288.001 54.845c-20.812-23.737-46.93-40.06-75.02-48.767a129.71 129.71 0 0114.759 8.774c14.079 9.726 25.982 21.833 35.368 36.048 9.726 14.76 16.255 31.083 19.52 48.563 3.265 17.48 2.925 35.096-.816 52.303-3.673 16.664-10.474 32.24-20.133 46.319a131.86 131.86 0 01-21.832 24.553 128.16 128.16 0 01-14.216 10.814 131.052 131.052 0 01-22.444 11.835c-35.844 16.936-79.986 8.91-107.396-22.377-3.537-4.013-6.598-8.298-9.318-12.651 11.29 35.64 38.564 65.771 76.449 79.17 31.082 11.018 64.614 9.25 94.404-4.897 10.407-4.965 19.929-11.223 28.363-18.636 14.351-12.515 25.573-28.295 32.919-46.319 19.928-54.548 10.338-118.006-30.607-164.8v.068z" fill="url(#paint1_linear_1166_2413)"/><path d="M212.03 304.734c-17.616 1.02-35.028-1.428-51.828-7.346-16.799-5.917-31.899-14.963-44.89-26.934a131 131 0 01-30.062-40.605c-7.346-15.439-11.63-31.899-12.651-48.902a126.824 126.824 0 011.02-25.914c1.973-22.513 12.379-44.346 30.743-60.466 16.732-14.623 37.34-22.036 57.949-22.513-36.524-8.025-72.309 4.447-106.852 26.594-50.127 42.85-57.473 117.394-17.752 169.154.952 1.156 1.973 2.38 2.993 3.537 59.785 68.287 163.576 75.224 231.863 15.439 1.088-.952 2.177-1.972 3.265-2.925a132.149 132.149 0 01-14.895 8.298c-15.44 7.346-31.899 11.631-48.903 12.651v-.068z" fill="url(#paint2_linear_1166_2413)"/><defs><linearGradient id="paint0_linear_1166_2413" x1="4.658" y1="200.832" x2="259.593" y2="61.143" gradientUnits="userSpaceOnUse"><stop offset=".302" stop-color="#7AB7FF"/><stop offset="1" stop-color="#06060A"/></linearGradient><linearGradient id="paint1_linear_1166_2413" x1="91.446" y1="224.473" x2="317.391" y2="100.669" gradientUnits="userSpaceOnUse"><stop offset=".03" stop-color="#202038" stop-opacity=".8"/><stop offset="1" stop-color="#BF77D8"/></linearGradient><linearGradient id="paint2_linear_1166_2413" x1="78.06" y1="84.686" x2="175.715" y2="330.001" gradientUnits="userSpaceOnUse"><stop stop-color="#2F6549" stop-opacity=".81"/><stop offset="0" stop-opacity=".81"/><stop offset="1" stop-color="#8BFFC1" stop-opacity=".8"/></linearGradient></defs></svg>