<svg width="101" height="101" fill="none" xmlns="http://www.w3.org/2000/svg"><path d="M.814 55.873c.443-5.31 1.77-10.4 4.204-15.046 2.434-4.867 5.753-9.071 9.956-12.611 4.204-3.54 8.85-6.196 14.16-7.744 5.09-1.55 10.179-2.213 15.489-1.77 5.31.442 10.399 1.77 15.045 4.204 2.434 1.106 4.647 2.655 6.638 4.203 1.77 1.328 3.54 2.877 5.089 4.647 7.965 9.071 9.072 21.904 3.54 31.86 7.744-8.407 11.505-20.355 9.293-32.524C80.467 10.958 61.66-2.318 41.747.337c-8.85 1.55-17.48 5.532-24.56 11.727-14.382 12.612-19.913 31.64-15.93 49.34-.443-1.991-.443-3.761-.443-5.531z" fill="#A4CC6C"/><path d="M88.211 16.71C81.795 9.407 73.83 4.32 65.201 1.663l4.646 2.655c4.425 2.876 7.965 6.638 10.841 11.063 3.098 4.425 5.09 9.514 5.974 15.045 1.107 5.31.885 10.842-.22 16.152-1.107 5.09-3.32 9.957-6.196 14.16-1.991 2.877-4.204 5.31-6.638 7.523-1.327 1.107-2.876 2.213-4.425 3.32-2.213 1.548-4.425 2.654-6.859 3.54-11.063 5.31-24.56 2.654-32.967-6.86-1.107-1.327-1.991-2.433-2.877-3.982 3.54 11.063 11.948 20.134 23.454 24.338 9.514 3.319 19.913 2.876 28.984-1.549 3.098-1.549 6.196-3.54 8.63-5.752a36.353 36.353 0 0010.177-14.16c5.974-16.595 3.098-36.066-9.514-50.447z" fill="#A4CC6C"/><path d="M64.758 93.486c-5.31.221-10.842-.443-15.93-2.213-5.09-1.77-9.736-4.646-13.719-8.186-3.761-3.54-7.08-7.744-9.293-12.39-2.212-4.647-3.54-9.736-3.982-15.046-.221-2.655 0-5.31.221-7.965.664-6.86 3.761-13.718 9.514-18.586 5.089-4.425 11.506-6.859 17.922-6.859-11.284-2.434-23.453.221-32.967 8.187-15.488 13.275-17.7 36.065-5.532 51.995.221.442.664.664.885 1.106 18.365 21.02 50.447 23.232 71.466 4.647.443-.222.664-.664 1.107-.885l-4.647 2.655c-4.646 1.991-9.735 3.319-15.045 3.54z" fill="#A4CC6C"/></svg>