<svg width="99" height="88" fill="none" xmlns="http://www.w3.org/2000/svg"><path d="M98.672 1.371s-43.808-6.637-66.82 9.293C-.892 33.232 8.4 68.191 8.4 68.191l.221-.221c6.638-7.523 21.24-20.577 21.24-20.577s.664-14.824 7.966-29.87c.442-.885-4.425 26.994-3.761 26.551 6.637-5.089 19.028-13.497 19.028-13.497s2.655-9.956 9.071-17.922c.443-.663-5.974 16.152-5.531 15.71 13.718-9.514 28.542-16.816 28.542-16.816s-17.48 11.506-33.189 23.453c-.885.664 21.905 2.877 21.905 2.877-6.86 2.212-26.551.664-27.215 1.106-6.638 4.425-18.143 15.267-18.143 15.267l26.108 2.876s-8.407 1.77-15.709 1.549c-3.319 0-13.718-.664-13.718-.664S6.187 76.378.435 86.113c-1.77 3.097 2.212 1.991 5.752-1.991 2.213-2.434 4.647-5.532 8.408-9.293 15.93 4.204 37.392 7.965 57.97-11.284C92.92 44.517 98.672 1.593 98.672 1.37z" fill="#A4CC6C"/></svg>