<svg width="102" height="92" fill="none" xmlns="http://www.w3.org/2000/svg"><path d="M50.748 11.516c-30.312-30.312-70.36 9.736-39.826 40.048L50.748 91.39l39.827-39.826c30.312-30.313-9.514-70.139-39.827-40.048z" fill="#A4CC6C"/><path fill-rule="evenodd" clip-rule="evenodd" d="M47.242 87.883c-.467-1.669-.8-3.24-.998-4.63.22-1.55 1.106-2.877 1.99-4.205 8.851-10.62 7.745-24.78 7.302-28.32 0-.443.222-1.107.664-1.328 1.77-1.328 2.877-3.983 3.319-5.532.221-.663.664-1.106 1.328-1.549 5.752-3.318.663-8.85.442-9.071.443-1.549-.885-3.098-2.655-2.876h-.221c-1.77 0-3.983-1.992-3.983-1.992s-7.744-4.425-13.054-1.327c-2.434 1.327-3.983 1.991-5.31 1.991-.222 0-.498.055-.775.11-.276.056-.553.111-.774.111-3.098-5.531-8.85-15.488-11.948-15.488-2.655 0-.442 7.08 1.549 12.17-9.293-7.08-12.833-1.107-12.833-1.107-3.54 8.85 8.629 14.382 13.275 15.93 1.328.443 2.213 1.55 2.655 2.877 1.55 5.089-4.425 8.187-6.637 9.072-.664.22-1.328.442-1.77.885-1.271.72-2.497 1.443-3.68 2.166l32.114 32.113z" fill="#E1F4C5"/><path d="M44.254 36.345a1.77 1.77 0 100-3.54 1.77 1.77 0 000 3.54z" fill="#A4CC6C"/></svg>