<svg width="94" height="92" fill="none" xmlns="http://www.w3.org/2000/svg"><path d="M28.1 90.946c-5.09-1.327-9.957-2.876-14.603-5.31-4.204-2.212-7.744-4.867-10.62-8.85C1.106 74.131 0 71.033 0 67.714V49.571c0-2.212 1.106-3.982 2.655-5.531 2.213-2.213 4.868-3.54 7.744-4.646 1.991-.664 2.655-3.32 1.328-4.868-2.434-2.877-4.204-6.195-4.647-9.957-.664-4.204-.221-7.965 2.877-11.062 3.318-3.098 7.301-3.762 11.505-2.213 3.983 1.549 6.195 4.646 6.416 8.85.443 5.31-1.327 9.957-4.646 14.16-1.106 1.328-.885 3.54.664 4.647.221 0 .221.221.442.221 1.328.664 2.877 1.328 4.425 1.992v-1.55c-.22-2.654.885-4.646 2.655-6.416 2.213-2.212 5.09-3.54 7.966-4.646 1.77-.664 2.655-2.213 1.991-3.983-.221-.442-.443-.663-.664-.885-3.319-3.982-4.867-8.408-4.646-13.496C36.286 4.435 40.49.23 46.022.01c5.973-.221 10.398 3.319 11.284 9.293.663 5.531-1.107 10.177-4.647 14.381-.885 1.107-1.106 2.434-.664 3.54.222.664.885 1.107 1.55 1.55 2.654 1.105 5.31 2.212 7.743 4.203 2.434 1.991 3.762 4.204 3.54 7.523v1.106l4.647-1.991c1.549-.885 1.991-3.098.663-4.425-2.655-3.098-4.425-6.638-4.867-10.62-.443-4.205.221-8.187 3.983-11.063 5.53-4.204 15.93-2.434 17.257 6.858.886 5.532-.885 10.4-4.425 14.603-.885 1.107-1.106 2.213-.885 3.54.222.886.885 1.328 1.77 1.55 2.434.884 4.868 1.99 6.86 3.76 2.433 1.992 3.76 4.426 3.76 7.745-.22 5.31-.22 10.62 0 15.93.222 5.31-1.99 9.736-5.752 13.276-4.425 4.203-9.735 6.859-15.267 8.85-1.77.664-3.761 1.106-5.531 1.77-.221 0-.664.221-1.106.221v-4.204c.22-3.54-1.328-5.974-3.983-7.965a22.3 22.3 0 00-7.523-3.983c-1.77-.663-2.212-2.212-1.106-3.76 2.655-3.098 4.204-6.417 4.646-10.4.664-4.425 0-8.629-3.319-11.727-3.54-3.319-7.743-3.761-12.169-2.212-4.425 1.549-6.637 4.867-7.08 9.293-.664 5.752 1.106 10.62 4.868 15.045 1.106 1.328.663 2.876-.885 3.54-3.098 1.107-5.753 2.655-8.187 4.868-1.991 1.991-3.319 3.983-3.097 7.08.22.664 0 1.991 0 3.761z" fill="#A4CC6C"/></svg>