<svg width="98" height="103" fill="none" xmlns="http://www.w3.org/2000/svg"><path d="M79.816 28.039c-5.532 2.876-7.744 9.514-5.532 15.045l-8.85 4.868c-3.54-5.753-9.956-8.63-16.373-8.187l-1.77-14.603c.885-.22 1.77-.663 2.655-1.106 6.195-3.319 8.63-11.063 5.31-17.258-3.319-6.195-11.063-8.629-17.258-5.31-6.195 3.319-8.629 11.063-5.31 17.258 2.213 4.204 6.417 6.638 10.842 6.859l1.77 14.824c-1.106.443-2.434.885-3.54 1.328-5.09 2.655-8.408 7.301-9.293 12.611L7.907 51.05c0-.442-.22-.885-.442-1.327-1.106-1.992-3.319-2.655-5.31-1.77C.163 49.058-.5 51.27.385 53.262c1.106 1.991 3.318 2.655 5.31 1.77.885-.442 1.549-1.106 1.77-1.991l24.56 3.319c-.222 3.318.442 6.637 1.99 9.735a16.138 16.138 0 005.753 6.416l-1.549 1.77c-.663 0-1.548 0-2.212.443-1.991 1.106-2.655 3.54-1.77 5.531.221.222.221.443.442.664L24.28 95.301a1.41 1.41 0 00-1.327 0c-.664.442-.885 1.327-.664 1.991.442.664 1.328.885 1.991.664.664-.221.885-1.328.664-1.991 0-.222-.221-.222-.221-.222l10.399-14.381c1.328 1.106 3.098 1.327 4.646.663 1.992-1.106 2.655-3.54 1.77-5.531-.22-.221-.22-.442-.442-.664l1.549-1.77c4.867 2.213 10.841 2.213 15.93-.442 1.106-.664 2.213-1.328 3.32-2.213l5.973 5.31c-3.761 4.868-4.646 11.727-1.77 17.48 4.204 7.744 13.718 10.841 21.683 6.637 7.744-4.204 10.842-13.718 6.638-21.683-4.204-7.744-13.718-10.841-21.683-6.638-.664.443-1.328.664-1.77 1.107l-6.196-5.532c3.54-4.646 4.426-11.063 2.434-16.594l9.293-5.089c3.54 3.983 9.514 5.089 14.603 2.655 5.974-3.097 8.187-10.399 5.089-16.152-3.098-5.531-10.4-7.965-16.373-4.867z" fill="#A4CC6C"/></svg>