<svg width="77" height="76" fill="none" xmlns="http://www.w3.org/2000/svg"><path d="M67.492 13.69v48.618a4.191 4.191 0 01-4.191 4.191H14.683a4.191 4.191 0 01-4.19-4.19V13.69a4.191 4.191 0 014.19-4.191h48.618a4.191 4.191 0 014.191 4.19zM27.257 31.295h-8.383v26.823h8.383V31.294zm.754-9.221a4.828 4.828 0 00-4.794-4.862h-.151a4.862 4.862 0 000 9.724 4.828 4.828 0 004.945-4.711v-.151zM59.11 41.822c0-8.064-5.13-11.199-10.227-11.199a9.557 9.557 0 00-8.483 4.325h-.234v-3.654h-7.88v26.823h8.383V43.85a5.566 5.566 0 015.03-6.001h.318c2.665 0 4.643 1.676 4.643 5.9v14.368h8.383l.067-16.295z" fill="#020202"/></svg>