<svg width="46" height="69" fill="none" xmlns="http://www.w3.org/2000/svg"><path d="M45.75 26.127c-.047-.386-.326-.714-.728-.86a1.317 1.317 0 00-1.204.158c-.142.101-2.256 1.645-5.138 4.35v-.31c0-.807-.343-1.547-.91-2.103.562-.56.91-1.296.91-2.104v-2.364c0-.808-.343-1.547-.91-2.103.562-.56.91-1.296.91-2.104v-2.364c0-1.742-1.597-3.16-3.56-3.16h-1.473a2.8 2.8 0 00.205-1.052V9.747c0-1.742-1.596-3.16-3.56-3.16H28.82a2.8 2.8 0 00.206-1.051V3.16c0-1.743-1.597-3.16-3.56-3.16h-4.91c-1.962 0-3.56 1.417-3.56 3.16v2.364c0 .37.074.723.207 1.051h-1.474c-1.963 0-3.56 1.418-3.56 3.16V12.1c0 .37.074.723.206 1.052h-1.473c-1.963 0-3.56 1.417-3.56 3.16v2.364c0 .808.343 1.547.91 2.103-.562.56-.91 1.296-.91 2.104v2.364c0 .808.343 1.547.91 2.104-.562.56-.91 1.295-.91 2.104v.308c-2.882-2.709-4.996-4.248-5.138-4.35A1.317 1.317 0 001 25.255c-.402.146-.681.48-.727.861-.028.215-.618 5.37.032 11.84.888 8.78 3.555 15.42 7.934 19.734 2.361 2.327 5.198 3.935 8.474 4.813v5.446c0 .58.53 1.052 1.185 1.052h10.204c.654 0 1.185-.471 1.185-1.052v-5.446c3.276-.873 6.113-2.482 8.474-4.813 4.379-4.318 7.047-10.954 7.934-19.735.654-6.47.06-11.624.032-11.839l.023.012zM28.763 41.423a2.52 2.52 0 00-.132-.252c.077.037.15.069.233.102-.032.048-.069.101-.1.15zM9.72 25.254V22.89c0-.58.531-1.052 1.186-1.052h4.91c.654 0 1.184.472 1.184 1.052v2.364c0 .58-.53 1.052-1.185 1.052h-4.91c-.654 0-1.185-.471-1.185-1.052zm9.655-8.943c0-.581.53-1.052 1.185-1.052h4.91c.654 0 1.185.471 1.185 1.052v2.364c0 .58-.53 1.052-1.185 1.052h-4.91c-.654 0-1.185-.472-1.185-1.052V16.31zm16.934 6.575v2.364c0 .58-.53 1.052-1.185 1.052h-4.91c-.653 0-1.184-.471-1.184-1.052v-2.364c0-.58.53-1.052 1.185-1.052h4.91c.654 0 1.184.471 1.184 1.052zM19.375 25.25v-2.364c0-.58.53-1.052 1.185-1.052h4.91c.654 0 1.185.471 1.185 1.052v2.364c0 .58-.53 1.052-1.185 1.052h-4.91c-.654 0-1.185-.471-1.185-1.052zm0 4.212c0-.581.53-1.052 1.185-1.052h4.91c.654 0 1.185.471 1.185 1.052v2.364c0 .58-.53 1.051-1.185 1.051h-4.91c-.654 0-1.185-.47-1.185-1.052v-2.363zm0 8.943v-2.364c0-.58.53-1.052 1.185-1.052h4.91c.654 0 1.185.472 1.185 1.052v2.364c0 .58-.53 1.052-1.185 1.052h-4.91c-.654 0-1.185-.471-1.185-1.052zm-2.37-2.201v2.039c0 .588-.476 1.084-1.103 1.194a61.782 61.782 0 00-3.532-4.448h3.267c.755 0 1.372.545 1.372 1.219l-.004-.004zm.165 5.064a6.57 6.57 0 00.233-.101 4.516 4.516 0 00-.133.252c-.032-.05-.068-.102-.1-.15zm8.99 4.57c-.191.121-.43.194-.686.194h-4.91c-.256 0-.493-.073-.686-.194-.16-.31-.329-.622-.498-.93v-2.291c0-.581.53-1.052 1.185-1.052h4.91c.654 0 1.184.471 1.184 1.052v2.29c-.169.31-.338.622-.498.93zm-1.116 2.302a39.075 39.075 0 00-2.027 5.597 39.075 39.075 0 00-2.027-5.597h4.054zm5.088-8.703c-.627-.11-1.102-.605-1.102-1.194v-2.04c0-.67.613-1.218 1.372-1.218h3.267a64.664 64.664 0 00-3.532 4.447l-.005.005zm5.555-6.681a1.32 1.32 0 01-.563.126h-4.91c-.653 0-1.184-.472-1.184-1.052v-2.364c0-.581.53-1.052 1.185-1.052h4.91c.654 0 1.184.471 1.184 1.052v2.364a.884.884 0 01-.068.345c-.183.19-.37.382-.554.58zm.623-16.445v2.364c0 .58-.531 1.052-1.186 1.052h-4.91c-.653 0-1.184-.472-1.184-1.052V16.31c0-.581.53-1.052 1.185-1.052h4.91c.654 0 1.184.471 1.184 1.052zm-4.828-6.576V12.1c0 .58-.53 1.052-1.185 1.052h-4.91c-.654 0-1.185-.471-1.185-1.052V9.735c0-.58.531-1.052 1.185-1.052h4.91c.654 0 1.185.472 1.185 1.052zM19.375 5.524V3.16c0-.581.53-1.052 1.185-1.052h4.91c.654 0 1.185.471 1.185 1.052v2.364c0 .58-.53 1.051-1.185 1.051h-4.91c-.654 0-1.185-.47-1.185-1.051zm-4.827 6.575V9.735c0-.58.53-1.052 1.185-1.052h4.91c.654 0 1.185.472 1.185 1.052V12.1c0 .58-.531 1.052-1.186 1.052h-4.91c-.653 0-1.184-.471-1.184-1.052zM9.72 16.311c0-.581.531-1.052 1.186-1.052h4.91c.654 0 1.184.471 1.184 1.052v2.364c0 .58-.53 1.052-1.185 1.052h-4.91c-.654 0-1.185-.472-1.185-1.052V16.31zm0 15.519v-2.364c0-.581.531-1.052 1.186-1.052h4.91c.654 0 1.184.471 1.184 1.052v2.364c0 .58-.53 1.052-1.185 1.052h-4.91c-.205 0-.397-.045-.562-.126-.188-.195-.37-.39-.554-.581a.973.973 0 01-.069-.345zm.298 24.466c-7.81-7.697-7.829-22.395-7.536-27.85a67.813 67.813 0 015.298 4.89c.234.382.559.715.943.983a63.696 63.696 0 012.562 2.888c1.918 2.295 3.981 5.105 5.77 8.31.11.576.403 1.104.815 1.53 2.141 4.2 3.738 8.989 3.935 14.114-4.786-.231-8.749-1.864-11.792-4.861l.005-.004zm16.916 6.998v3.614H19.1v-3.614h7.834zm9.083-6.998c-3.043 2.997-7.006 4.63-11.792 4.861.202-5.125 1.798-9.914 3.935-14.113.417-.427.705-.95.815-1.531 1.78-3.185 3.825-5.983 5.733-8.265a63.479 63.479 0 012.604-2.933c.384-.264.704-.597.938-.979a68.564 68.564 0 015.303-4.89c.293 5.45.274 20.15-7.536 27.85z" fill="#000"/></svg>