<svg width="47" height="72" fill="none" xmlns="http://www.w3.org/2000/svg"><path d="M44.193 27.146c3.491-3.11 2.754-7.175 2.719-7.348l-.1-.521-.547-.255c-.136-.063-2.684-1.207-5.799-.478 1.951-5.611-1.279-9.938-1.42-10.124l-.385-.504-.713.012c-.185 0-3.711.102-6.892 2.568C30.134 3.471 24.41.466 24.16.34L23.497 0l-.662.339c-.25.127-5.974 3.132-6.892 10.157-3.18-2.466-6.706-2.563-6.891-2.568l-.713-.012-.386.504c-.14.186-3.37 4.509-1.42 10.124-3.114-.73-5.662.419-5.798.478l-.546.255-.1.52c-.036.17-.773 4.238 2.718 7.349a9.403 9.403 0 004.309 2.165c-3.848 4.708-5.96 10.81-5.96 17.272 0 6.462 2.288 13.069 6.441 17.849C11.835 69.313 17.514 72 23.577 72c6.065 0 11.743-2.687 15.981-7.568 4.154-4.78 6.44-11.12 6.44-17.849 0-6.729-2.116-12.59-5.978-17.302a9.37 9.37 0 004.173-2.135zm.246-6.433c.03 1.017-.156 3.216-2.102 4.95-1.394 1.241-2.964 1.614-4.068 1.707a22.581 22.581 0 00-2.944-2.453c1.058-.67 2.352-1.7 3.456-3.183.166-.123.341-.241.522-.347 2.106-1.259 4.153-.945 5.136-.665v-.009zm-26.65 3.623l3.983 3.365-9.37 7.916-4.283-3.62c2.467-3.58 5.823-6.288 9.67-7.665v.004zm2.744-.737a17.263 17.263 0 016.09 0l-3.045 2.572-3.045-2.572zm3.045 5.627l9.37 7.916-9.37 7.916-9.37-7.916 9.37-7.916zm-12.986 7.916L3.99 42.719c.456-3.166 1.454-6.12 2.889-8.717l3.712 3.14zM3.72 47.172c0-.195-.005-.39-.005-.584 0-.195 0-.39.005-.585l8.677-7.331 9.37 7.916-9.37 7.915-8.682-7.335.005.004zm6.871 8.861l-3.716 3.14c-1.435-2.598-2.433-5.551-2.89-8.717l6.601 5.577h.005zm12.987-7.916l9.37 7.916-9.37 7.916-9.37-7.916 9.37-7.916zm1.806-1.525l9.37-7.916 8.677 7.33c0 .196.005.39.005.586 0 .195 0 .39-.005.584l-8.678 7.331-9.37-7.915zm17.78 3.864c-.456 3.166-1.454 6.12-2.888 8.717l-3.717-3.14 6.6-5.577h.006zm-6.6-13.31l3.717-3.14c1.434 2.598 2.433 5.551 2.889 8.717l-6.601-5.577h-.005zm-1.806-1.525l-9.37-7.916 3.983-3.365c3.847 1.373 7.203 4.085 9.67 7.666l-4.283 3.619v-.004zm2.503-25.45c.707 1.24 2.087 4.385.627 8.13-1.163 2.98-3.43 4.569-4.745 5.277a20.456 20.456 0 00-5.101-1.907c1.013-1.386 2.703-4.204 3.065-7.895 2.056-2.67 4.84-3.402 6.15-3.606h.004zm-18.82 1.008c.467-4.895 3.662-7.607 5.067-8.573 1.404.966 4.6 3.678 5.066 8.573.556 5.869-3.22 10.026-3.26 10.064a20.41 20.41 0 00-3.642.021l.03-.021c-.04-.038-3.817-4.195-3.26-10.064zM9.75 10.17c1.314.2 4.093.937 6.15 3.606.366 3.72 2.081 6.552 3.09 7.929a20.433 20.433 0 00-5.047 1.915c-1.299-.686-3.636-2.28-4.82-5.314-1.46-3.746-.08-6.89.627-8.132v-.004zM4.658 25.658c-1.946-1.733-2.132-3.928-2.102-4.95.983-.275 3.03-.592 5.136.666.18.11.356.225.522.348a13.029 13.029 0 003.536 3.237 22.764 22.764 0 00-2.944 2.475v-.064c-1.099-.076-2.719-.436-4.148-1.712zm3.456 35.515l4.283-3.619 9.37 7.916-3.983 3.365c-3.847-1.373-7.202-4.085-9.67-7.666v.004zm12.414 8.399L23.573 67l3.044 2.572a17.255 17.255 0 01-6.089 0zm8.833-.737l-3.983-3.365 9.37-7.916 4.284 3.62c-2.468 3.58-5.824 6.288-9.67 7.665v-.004z" fill="#000"/></svg>