<svg width="72" height="68" fill="none" xmlns="http://www.w3.org/2000/svg"><path d="M42.222 67.015A15.05 15.05 0 0131.546 62.6L4.977 36.031c-5.886-5.886-5.886-15.463 0-21.35a14.997 14.997 0 0110.676-4.421c4.033 0 7.823 1.57 10.675 4.422l26.57 26.569a14.996 14.996 0 014.421 10.675c0 4.033-1.57 7.824-4.422 10.675a15.05 15.05 0 01-10.675 4.415zm-26.57-54.149a12.404 12.404 0 00-8.831 3.66c-4.87 4.869-4.87 12.793 0 17.663L33.39 60.758c4.87 4.87 12.794 4.87 17.663 0a12.409 12.409 0 003.66-8.832c0-3.337-1.3-6.473-3.66-8.832L24.485 16.525a12.408 12.408 0 00-8.832-3.659z" fill="#000"/><path d="M18.707 41.889c-.334 0-.667-.127-.922-.382l-8.814-8.814c-3.862-3.863-3.862-10.15 0-14.012a1.303 1.303 0 111.844 1.844c-2.847 2.847-2.847 7.478 0 10.326l8.814 8.814a1.303 1.303 0 01-.922 2.225v-.002z" fill="#000"/><path d="M19.165 49.71c-.335 0-.668-.127-.922-.382L4.959 36.045c-5.886-5.886-5.882-15.47.008-21.36a15.007 15.007 0 0110.677-4.43h.009a14.99 14.99 0 0110.67 4.423l13.284 13.284a1.307 1.307 0 010 1.845L20.085 49.328a1.298 1.298 0 01-.922.382h.002zM6.805 34.202l12.36 12.361 17.679-17.678L24.482 16.52a12.406 12.406 0 00-8.828-3.659h-.007a12.417 12.417 0 00-8.836 3.666C1.938 21.4 1.946 29.33 6.804 34.2v.003-.001zm49.121-3.843c-3.103 0-6.124-.953-8.712-2.778-6.839-4.822-8.478-14.308-3.657-21.147A15.075 15.075 0 0153.373.226a15.075 15.075 0 0111.33 2.55 15.075 15.075 0 016.21 9.817 15.077 15.077 0 01-2.552 11.33 15.076 15.076 0 01-9.816 6.21c-.875.151-1.749.226-2.619.226zm.06-27.75c-.72 0-1.445.061-2.169.187a12.487 12.487 0 00-8.13 5.142c-3.994 5.663-2.635 13.52 3.03 17.514a12.486 12.486 0 009.385 2.113 12.487 12.487 0 008.13-5.142 12.485 12.485 0 002.113-9.384 12.487 12.487 0 00-5.143-8.13 12.482 12.482 0 00-7.215-2.3h-.001z" fill="#000"/><path d="M49.157 11.69a1.304 1.304 0 01-1.064-2.055 9.562 9.562 0 016.225-3.937 9.558 9.558 0 017.184 1.617A1.304 1.304 0 0160 9.445a6.968 6.968 0 00-5.238-1.178 6.97 6.97 0 00-4.538 2.87 1.3 1.3 0 01-1.066.553zm20.203 4.727H42.819a1.303 1.303 0 110-2.607h26.54a1.303 1.303 0 110 2.607z" fill="#000"/><path d="M69.36 16.417H42.819a1.303 1.303 0 110-2.607h26.54a1.303 1.303 0 110 2.607z" fill="#000"/></svg>