<svg width="68" height="72" fill="none" xmlns="http://www.w3.org/2000/svg"><g clip-path="url(#clip0_1166_2101)"><path d="M63.153 32.684a.778.778 0 00-1.077-.518l-6.733 3.062c.058-.188 2.685-8.789 2.739-8.973.14-.48.38.111-9.932-15.938a.778.778 0 00-1.154-.173L31.819 22.936C28.872 9.79 29.1 10.455 28.837 10.194a.839.839 0 00-.206-.154L9.76.3a.778.778 0 00-1.073.384L.262 20.583a.757.757 0 00.015.652c.078.158 10.455 19.458 10.54 19.612-3.97-.407-3.757-.419-4.01-.35a.8.8 0 00-.464.346c-.042.073-4.513 11.022-4.547 11.099a.766.766 0 00.166.829l17.784 17.827a.78.78 0 00.55.226h31.55a.776.776 0 00.596-.28c.09-.108 15.115-18.15 15.2-18.257a.576.576 0 00.116-.207c.132-.353.345.837-4.61-19.396h.005zM37.42 54.985l-3.896 12.638c-9.893-27.337-7.008-19.37-14.414-39.825l8.848-14.994 9.459 42.181h.003zm8.139-21.139c3.71-2.176 6.829-4.002 10.462-6.132l-2.556 8.37-9.998 4.548 2.092-6.785zm-1.561-.188c-3.448 11.184-2.216 7.189-5.66 18.35l-5.821-25.96c4.842 3.208-.725-.48 11.48 7.61zm-1.418 9.856c1.62 1.662 1.1 1.128 8.886 9.126l-9.138 16.653h-7.7c.747-2.43 7.057-22.89 7.948-25.779h.004zm23.485 7.58l-13.332.637-9.192-9.441c7.406-3.37 10.772-4.901 18.33-8.336l4.194 17.14zM47.321 11.886l8.933 13.909-11.323 6.64-12.306-8.16 14.696-12.389zm-37.53-9.84l17.415 8.992a38743.1 38743.1 0 00-9.281 15.728L1.989 20.472 9.791 2.046zm7.855 26.259l4.974 13.747-9.951-1.017L2.648 22.383c8.65 3.412 6.596 2.602 15.002 5.922h-.004zm5.555 15.351l9.277 25.637h-4.3c-2.119-2.944-17.42-24.179-19.542-27.126l14.56 1.489h.005zM3.422 52.053L7.2 42.816l19.077 26.48h-5.659L3.422 52.054zm48.056 17.24H44.09l8.797-16.035 12.434-.59-13.844 16.629v-.004z" fill="#333" stroke="#000" stroke-miterlimit="10"/></g><defs><clipPath id="clip0_1166_2101"><path fill="#fff" transform="translate(0 .02)" d="M0 0h68v71H0z"/></clipPath></defs></svg>