<svg width="57" height="77" fill="none" xmlns="http://www.w3.org/2000/svg"><path d="M49.517 29.593c-2.282-2.403-4.55-4.25-6.94-5.636-3.654-2.118-4.495-3.667-4.686-4.4l-.366-1.453a4.202 4.202 0 00-4.088-3.178l-3.912 1.086c-.312-1.643-.366-4.699 2.934-6.138.692-.3 1.005-1.1.692-1.78a1.366 1.366 0 00-1.792-.692c-1.073.475-1.929 1.073-2.58 1.752-2.133-4.156-5.066-6.94-8.76-8.271C12.997-1.643 5.894 2.037 5.595 2.2l-1.208.639.665 1.208c4.563 8.271 12.006 9.969 17.343 9.969 1.725 0 3.219-.177 4.346-.367a10.46 10.46 0 000 2.16l-2.77-.802-.38-.054a4.19 4.19 0 00-4.088 3.178l-.367 1.453c-.177.734-1.032 2.268-4.686 4.4-2.403 1.4-4.672 3.246-6.94 5.637C2.675 34.7 0 41.097 0 47.616s1.426 10.253 6.084 15.17c2.268 2.404 4.55 4.237 6.94 5.636.76.434 1.684.76 2.676 1.1 1.372.462 3.246 1.114 3.436 1.874l.367 1.453a4.201 4.201 0 004.087 3.178l3.762-1.113a2.94 2.94 0 011.644-.028l4.06 1.1.354.041a4.19 4.19 0 004.088-3.178l.366-1.453c.19-.76 2.065-1.399 3.436-1.874.992-.34 1.929-.666 2.676-1.1 2.404-1.399 4.672-3.246 6.94-5.636C55.588 57.869 57 54.325 57 47.616c0-6.71-2.675-12.902-7.524-18.023h.04zM8.189 3.98c2.146-.842 6.614-2.118 10.906-.584 3.178 1.141 5.704 3.667 7.538 7.497-3.6.68-12.93 1.467-18.444-6.913zm40.785 56.946c-2.092 2.214-4.17 3.898-6.343 5.161-.516.299-1.33.584-2.186.87-2.173.746-4.632 1.588-5.188 3.775l-.367 1.453a1.507 1.507 0 01-1.304 1.127l-3.857-1.046a5.469 5.469 0 00-1.48-.19c-.57 0-1.141.082-1.684.258l-3.138.978a1.49 1.49 0 01-1.276-1.127l-.367-1.453c-.543-2.187-3.015-3.029-5.188-3.776-.855-.299-1.67-.57-2.186-.869-2.173-1.263-4.251-2.947-6.343-5.16-4.196-4.428-5.35-7.294-5.35-13.324S5.12 36.045 9.492 31.441c2.092-2.214 4.17-3.898 6.343-5.161 3.49-2.024 5.432-4.02 5.948-6.071l.367-1.453c.15-.611.679-1.06 1.29-1.128l3.504 1.02a5.65 5.65 0 003.15 0l3.505-1.02a1.49 1.49 0 011.29 1.128l.367 1.453c.516 2.05 2.458 4.047 5.948 6.07 2.173 1.264 4.251 2.948 6.343 5.162 4.373 4.604 6.776 10.348 6.776 16.161 0 5.813-1.154 8.882-5.35 13.323z" fill="#000"/><path d="M46.31 32.61a1.025 1.025 0 00-1.44-.042 1.025 1.025 0 00-.04 1.44c3.708 3.911 5.759 8.746 5.759 13.608a1.017 1.017 0 102.037 0c0-5.378-2.241-10.702-6.316-15.007zm-5.96-4.864c-3.897-2.268-6.11-4.604-6.736-7.13a1.018 1.018 0 00-1.235-.734 1.026 1.026 0 00-.747 1.236c.774 3.083 3.286 5.827 7.686 8.38.163.095.34.136.517.136a1.013 1.013 0 00.516-1.888z" fill="#000"/></svg>