<svg width="79" height="74" fill="none" xmlns="http://www.w3.org/2000/svg"><path d="M71.18 28.027c-.243 0-.489-.072-.703-.217l-25.86-17.685a8 8 0 00-.669-.412 1.246 1.246 0 011.203-2.18c.294.162.586.343.87.536L71.028 25.17l4.572-4.58L50.973 3.748c-.678-.464-1.351-.799-2-.997-1.453-.443-2.736-.271-3.52.47a1.25 1.25 0 01-.078.067L39.024 9.64a1.244 1.244 0 11-1.76-1.76l6.366-6.368a2.12 2.12 0 01.163-.148C45.246.03 47.394-.332 49.7.371c.89.271 1.792.717 2.678 1.323L78.24 19.381a1.244 1.244 0 01.177 1.908l-6.361 6.372c-.241.241-.56.366-.881.366h.004z" fill="#000"/><path d="M56.571 50.142a1.244 1.244 0 01-.88-2.125l.003-.003c1.145-1.15.942-3.5-.486-5.587L37.523 16.565c-2.137-3.124-2.213-6.723-.185-8.752l6.367-6.367a1.245 1.245 0 011.76 1.76c-1.15 1.15-.945 3.502.485 5.593l17.687 25.864c.607.886 1.051 1.787 1.324 2.678.704 2.305.34 4.453-.994 5.906a1.927 1.927 0 01-.149.163l-6.367 6.367a1.24 1.24 0 01-.88.365zM39.098 9.572c-1.15 1.15-.948 3.5.48 5.587l17.684 25.862c.856 1.251 1.382 2.578 1.575 3.85l3.205-3.205a1.1 1.1 0 01.068-.078c.741-.785.912-2.068.47-3.52-.198-.65-.535-1.322-.997-2.001L43.896 10.203c-.857-1.253-1.383-2.58-1.576-3.852l-3.222 3.222z" fill="#000"/><path d="M53.65 51.233c-1.583 0-3.321-.554-4.933-1.656L22.855 31.892a7.908 7.908 0 00-.652-.402 1.245 1.245 0 011.209-2.177c.286.16.572.336.848.525l25.862 17.684c2.087 1.428 4.437 1.63 5.586.48a1.244 1.244 0 111.76 1.76c-.981.982-2.332 1.471-3.819 1.471z" fill="#000"/><path d="M56.631 43.935c-.24 0-.485-.07-.7-.216l-26.715-18.2c-.68-.464-1.353-.799-2.001-.997-1.453-.443-2.736-.271-3.52.47-.025.023-.05.046-.078.067l-6.351 6.352a1.244 1.244 0 11-1.76-1.76l6.366-6.368c.044-.043.097-.094.163-.148 1.453-1.335 3.601-1.698 5.907-.994.89.271 1.792.717 2.678 1.322l26.714 18.198a1.244 1.244 0 01-.702 2.273v.002z" fill="#000"/><path d="M41.171 65.542a1.245 1.245 0 01-.897-2.108 1.82 1.82 0 01.07-.08c.741-.785.912-2.068.47-3.52-.198-.65-.534-1.322-.997-2L22.13 31.97c-.856-1.252-1.382-2.58-1.576-3.852l-3.222 3.222c-1.15 1.15-.948 3.499.48 5.586l17.685 25.862a1.245 1.245 0 01-2.055 1.405L15.758 38.331c-2.138-3.124-2.213-6.723-.186-8.751l6.367-6.367a1.244 1.244 0 111.76 1.76c-1.15 1.15-.944 3.501.486 5.592l17.687 25.864c.606.887 1.05 1.788 1.322 2.678.704 2.306.34 4.454-.994 5.906a2.006 2.006 0 01-.146.161 1.24 1.24 0 01-.882.367z" fill="#000"/><path d="M31.875 73.002c-1.584 0-3.32-.554-4.932-1.656L1.08 53.66a1.243 1.243 0 01-.179-1.905l6.36-6.375a1.245 1.245 0 011.583-.148L34.71 62.92c2.09 1.429 4.44 1.635 5.59.489l.004-.004a1.244 1.244 0 111.76 1.76l-.005.005-6.361 6.361c-.982.982-2.333 1.471-3.82 1.471h-.002zM3.723 52.452l24.625 16.84c2.087 1.427 4.437 1.629 5.586.48l3.222-3.223c-1.272-.193-2.6-.72-3.853-1.576L8.292 47.87l-4.57 4.582z" fill="#000"/></svg>