<svg width="77" height="74" fill="none" xmlns="http://www.w3.org/2000/svg"><path d="M38.992 73.906c-4.434 0-8.173-3.417-8.571-7.827a4.093 4.093 0 01-.084-.663c-.114-2.503.794-4.22 1.595-5.736.808-1.527 1.505-2.846 1.254-4.986-.083-.718-.41-1.427-1.057-2.296-.967-1.3-2.322-2.234-3.817-2.63-.801-.212-1.455-.252-2.053-.122-2.106.455-3.127 1.541-4.312 2.8-1.17 1.243-2.497 2.653-4.886 3.357a8.561 8.561 0 01-2.69.433c-3.606 0-6.972-2.283-8.174-5.888-1.411-4.235.683-8.883 4.774-10.633a4.16 4.16 0 01.605-.285c2.345-.882 4.26-.549 5.948-.256 1.702.296 3.172.552 5.13-.347.614-.283 1.147-.755 1.723-1.53a7.004 7.004 0 001.361-4.276c-.017-1.012-.18-1.733-.53-2.333-1.083-1.862-2.433-2.498-3.996-3.236-1.545-.73-3.296-1.555-4.703-3.61a8.553 8.553 0 01-1.57-6.374 8.554 8.554 0 013.4-5.645c3.59-2.65 8.658-2.094 11.588 1.255.16.145.314.309.458.487 1.564 1.958 1.838 3.882 2.081 5.58.244 1.71.455 3.187 1.916 4.77.499.543 1.2.93 2.27 1.258 1.679.513 3.431.423 4.935-.251.598-.268 1.038-.575 1.387-.964 1.435-1.605 1.624-3.086 1.843-4.8.216-1.7.462-3.628 1.997-5.61l.027-.034.258-.314a8.754 8.754 0 015.466-3.093 8.498 8.498 0 016.12 1.413 8.61 8.61 0 012.493 11.485 3.988 3.988 0 01-.323.585c-1.379 2.093-3.123 2.949-4.663 3.704-1.552.762-2.892 1.42-3.947 3.297-.345.614-.498 1.347-.498 2.378a6.993 6.993 0 001.53 4.383c.523.647 1.026 1.063 1.586 1.31 1.963.865 3.43.587 5.129.264 1.68-.319 3.584-.682 5.911.171a8.37 8.37 0 015.01 4.118 8.59 8.59 0 01.595 6.669 8.554 8.554 0 01-3.983 4.9 8.567 8.567 0 01-6.113.884 4.024 4.024 0 01-.656-.126c-2.416-.665-3.77-2.06-4.963-3.291-1.203-1.24-2.241-2.31-4.353-2.734-.664-.132-1.372-.063-2.295.225A7.012 7.012 0 0045.53 52.4c-.581.829-.872 1.508-.943 2.2-.217 2.143.5 3.451 1.33 4.966.822 1.498 1.752 3.195 1.683 5.686.026 4.729-3.803 8.611-8.543 8.647h-.066v.007zM26.97 46.742a8.03 8.03 0 012.069.291c2.11.56 4.013 1.865 5.36 3.675.947 1.273 1.455 2.434 1.598 3.657.352 3.014-.665 4.938-1.564 6.638-.725 1.368-1.35 2.55-1.27 4.283.004.088.014.166.03.233.02.076.032.153.038.232.233 2.993 2.758 5.324 5.76 5.324h.043a5.785 5.785 0 005.735-5.822v-.054c.053-1.734-.59-2.906-1.335-4.265-.924-1.685-1.972-3.594-1.665-6.613.121-1.184.58-2.31 1.442-3.54a9.85 9.85 0 015.084-3.732c1.382-.434 2.556-.53 3.696-.3 2.976.595 4.492 2.158 5.83 3.538 1.078 1.111 2.01 2.072 3.682 2.531.085.023.162.038.232.043.078.005.155.018.231.036a5.776 5.776 0 006.84-3.862 5.783 5.783 0 00-.396-4.488 5.568 5.568 0 00-3.362-2.746 1.1 1.1 0 01-.09-.03c-1.608-.599-2.921-.35-4.44-.061-1.89.359-4.03.767-6.8-.456-.974-.43-1.84-1.123-2.645-2.12-1.39-1.72-2.156-3.909-2.159-6.16 0-1.523.272-2.72.86-3.766 1.485-2.645 3.442-3.604 5.167-4.452 1.39-.683 2.592-1.272 3.547-2.72.049-.075.087-.145.113-.208a1.47 1.47 0 01.105-.21 5.778 5.778 0 00-1.637-7.77c-2.44-1.69-5.862-1.182-7.79 1.155l-.245.296c-1.051 1.367-1.219 2.688-1.414 4.219-.243 1.906-.519 4.066-2.54 6.329-.614.687-1.38 1.23-2.34 1.66-2.129.954-4.587 1.086-6.92.374-.98-.3-2.411-.838-3.524-2.044-2.057-2.231-2.365-4.387-2.637-6.29-.219-1.533-.408-2.857-1.491-4.213a1.23 1.23 0 00-.162-.17 1.351 1.351 0 01-.168-.166c-1.957-2.296-5.394-2.69-7.824-.895a5.742 5.742 0 00-2.282 3.789 5.736 5.736 0 001.065 4.292l.031.044c.977 1.433 2.186 2.004 3.587 2.666 1.738.82 3.707 1.75 5.233 4.37.598 1.03.889 2.209.913 3.711a9.855 9.855 0 01-1.918 6.009c-.863 1.163-1.757 1.93-2.813 2.416-2.757 1.267-4.903.893-6.796.563-1.526-.265-2.843-.495-4.467.116a1.133 1.133 0 00-.212.102 1.537 1.537 0 01-.21.108c-2.789 1.152-4.224 4.3-3.27 7.164a5.785 5.785 0 007.31 3.655l.052-.016c1.665-.485 2.582-1.46 3.644-2.587 1.317-1.4 2.81-2.986 5.774-3.626a6.178 6.178 0 011.309-.138l.006.001z" fill="#000"/><path d="M38.762 13.14a6.595 6.595 0 01-1.986-.309 6.514 6.514 0 01-3.84-3.23 6.52 6.52 0 01-.432-5 6.514 6.514 0 013.23-3.84A6.519 6.519 0 0140.733.33a6.564 6.564 0 014.272 8.229 6.514 6.514 0 01-3.23 3.84 6.527 6.527 0 01-3.013.741zM38.75 2.852a3.71 3.71 0 00-1.712.421 3.7 3.7 0 00-1.836 2.183c-.3.95-.213 1.958.246 2.842a3.7 3.7 0 002.183 1.836c1.96.62 4.058-.47 4.678-2.43a3.73 3.73 0 00-3.557-4.852h-.002zM7.465 36.329a6.563 6.563 0 01-5.566-10.003 6.563 6.563 0 019.022-2.135 6.513 6.513 0 012.936 4.07 6.518 6.518 0 01-.801 4.955 6.513 6.513 0 01-4.07 2.935 6.597 6.597 0 01-1.523.179l.002-.001zm.018-10.285a3.73 3.73 0 00-3.177 1.767 3.732 3.732 0 001.214 5.13 3.706 3.706 0 002.816.455 3.705 3.705 0 002.313-1.669 3.707 3.707 0 00.455-2.816 3.705 3.705 0 00-1.669-2.313 3.703 3.703 0 00-1.951-.554h-.001zm12.885 45.603a6.515 6.515 0 01-3.434-.976A6.514 6.514 0 0114 66.6a6.518 6.518 0 01.801-4.953 6.563 6.563 0 019.023-2.135 6.563 6.563 0 012.134 9.024 6.558 6.558 0 01-5.59 3.11zm.017-10.28a3.73 3.73 0 00-3.178 1.768 3.706 3.706 0 00-.455 2.816c.229.969.822 1.79 1.668 2.313a3.732 3.732 0 005.13-1.213 3.732 3.732 0 00-1.214-5.13 3.704 3.704 0 00-1.951-.554zm49.381-25.12a6.56 6.56 0 01-5.592-3.114 6.512 6.512 0 01-.8-4.955 6.508 6.508 0 012.939-4.067 6.564 6.564 0 019.022 2.14 6.564 6.564 0 01-2.14 9.021 6.518 6.518 0 01-3.43.974v.001zm-.017-10.281c-.666 0-1.342.179-1.95.553a3.696 3.696 0 00-1.67 2.312 3.7 3.7 0 00.454 2.816 3.73 3.73 0 005.128 1.215 3.73 3.73 0 001.217-5.127 3.729 3.729 0 00-3.179-1.77zM57.205 71.564c-.509 0-1.02-.06-1.526-.18a6.509 6.509 0 01-4.068-2.939 6.512 6.512 0 01-.799-4.954 6.508 6.508 0 012.939-4.067 6.511 6.511 0 014.954-.8 6.509 6.509 0 014.067 2.939 6.564 6.564 0 01-2.14 9.022 6.514 6.514 0 01-3.427.977v.002zm-.02-10.287c-.683 0-1.353.19-1.949.556a3.696 3.696 0 00-1.67 2.312 3.7 3.7 0 00.455 2.816 3.696 3.696 0 002.311 1.67 3.7 3.7 0 002.816-.454 3.73 3.73 0 001.217-5.128 3.696 3.696 0 00-2.311-1.67 3.762 3.762 0 00-.867-.102h-.002z" fill="#000"/></svg>