<svg width="69" height="74" fill="none" xmlns="http://www.w3.org/2000/svg"><path fill-rule="evenodd" clip-rule="evenodd" d="M47.639 3.82l-.644 1.585-1.172-1.391-1.171-1.392-.758.617c-.416.34-.762.692-.768.782-.006.091.646.929 1.45 1.86l1.46 1.696-2.129 5.313-2.127 5.314-1.72.6c-.945.33-2.436.989-3.314 1.465l-1.595.866-.01-.423c-.006-.232-.17-3.715-.364-7.74l-.353-7.317 1.677-1.116c.923-.614 1.723-1.176 1.78-1.25.055-.075-.156-.516-.47-.982l-.57-.846-1.12.76c-.617.419-1.188.772-1.27.786-.083.014-.177-.609-.21-1.385S34.128.19 34.062.163c-.095-.039-1.834-.008-1.999.035-.024.007-.01.705.033 1.552.042.847.052 1.547.023 1.555-.03.009-.661-.28-1.403-.64-.743-.362-1.373-.65-1.402-.642-.028.008-.256.418-.507.912l-.455.897.483.283c.266.156 1.152.6 1.97.986l1.489.702.233 4.982c.129 2.74.212 4.991.184 5.003-.027.011-.468-.385-.98-.88-1.243-1.205-3.555-3.122-5.826-4.831l-1.86-1.398.081-2.052c.044-1.128.073-2.073.065-2.098-.034-.103-1.961-.089-2.05.014-.051.061-.113.67-.136 1.353-.023.684-.077 1.229-.119 1.212a12.217 12.217 0 01-.747-.52c-1.416-1.03-1.283-.99-1.652-.495-.183.245-.46.647-.615.894l-.282.448.96.657c.53.36 1.018.734 1.088.83.09.124-.233.345-1.147.783-.7.336-1.29.65-1.31.699-.02.048.173.494.428.989l.465.9 1.874-.917 1.875-.917 1.783 1.33c3.633 2.712 7.64 6.414 8.19 7.568.096.2.202 1.07.235 1.933l.061 1.57-1.295 2.987-1.294 2.988.991.403.992.402 1.239-2.864 1.238-2.865.76-.539c2.517-1.787 6.123-3.165 11.55-4.413l1.457-.335 1.026.948a161.27 161.27 0 011.596 1.495l.57.548.69-.755c.38-.415.682-.8.674-.854-.008-.055-.452-.505-.985-1l-.97-.9 1.6-.295c.88-.162 1.62-.34 1.646-.394.07-.154-.313-1.94-.425-1.985-.055-.022-.788.097-1.63.264-.841.168-1.543.3-1.56.293-.016-.006.232-.6.552-1.32l.58-1.309-1-.406-.999-.406-.342.84a38.553 38.553 0 01-.91 2l-.57 1.16-1.448.323c-.797.178-1.66.366-1.919.418l-.47.094 1.825-4.486 1.824-4.487 2.325-.42c1.278-.232 2.334-.445 2.345-.473.018-.042-.281-1.84-.337-2.028-.008-.03-.724.079-1.59.242-.867.163-1.615.28-1.662.26-.048-.018.18-.69.506-1.492l.593-1.459-.991-.402-.99-.403-.645 1.585zM18.054 15.3c-2.319-.643-4.852-.77-9.367-.471-3.176.21-4.531.21-5.05-.001-.317-.129-.465-.06-1.134.537-.422.377-.728.74-.679.808.202.277.006 1.987-.606 5.28-.757 4.07-.937 5.872-.806 8.056.243 4.054 1.919 7.493 4.825 9.906 1.126.935 3.319 1.945 4.603 2.12 1.254.17 2.777.081 3.878-.226 1.87-.524 4.103-2.207 5.34-4.026.751-1.106.54-1.165 2.279.642 2.187 2.273 3.6 4.855 4.185 7.651.224 1.066.25 1.762.127 3.296-.492 6.108.048 12.21 1.57 17.704.251.91.991 2.94 1.644 4.514l1.187 2.86.952-.495.952-.495-1.138-2.73c-.626-1.502-1.34-3.492-1.586-4.422l-.448-1.691.647-1.163c1.273-2.287 3.01-4.302 4.838-5.61 1.04-.746 2.49-1.54 2.537-1.39.016.048.155.764.31 1.59.661 3.522 2.462 6.518 4.94 8.215.513.35.968.623 1.011.604.043-.018.29-.436.549-.928l.47-.895-.77-.511c-2.252-1.496-3.875-4.466-4.26-7.792l-.12-1.045 1.48-.7 1.479-.698 5.19 5.39c2.854 2.964 5.22 5.461 5.256 5.548.099.232-1.72.713-3.08.814-.647.049-1.652.013-2.231-.079-.58-.092-1.081-.16-1.114-.153-.034.007-.192.457-.352 1l-.29.987.65.157c4.662 1.127 10.529-1.144 14.265-5.52 2.577-3.018 4.047-6.543 5.63-13.5.882-3.873 1.609-6.188 2.063-6.566.263-.22.253-.32-.116-1.215l-.403-.976-.502.042c-.703.059-2.73-.81-6.117-2.62-3.44-1.84-7.452-3.51-9.545-3.974-4.054-.899-7.34-.678-10.832.728-4.969 2-8.057 5.897-8.362 10.552-.186 2.85.94 6.094 2.978 8.578.392.478.728.894.746.925.019.03-.546.382-1.255.78-2.072 1.163-4.167 3.084-5.708 5.234l-.633.883-.134-.963c-.234-1.671-.43-5.332-.397-7.401.076-4.711.836-9.708 2.34-15.389.198-.75.315-1.38.26-1.4-.056-.02-.414-.161-.796-.315-1.098-.443-1.066-.475-1.645 1.664a83.356 83.356 0 00-.82 3.316l-.316 1.454-.351-.683c-.864-1.676-2.85-4.23-4.59-5.898-.253-.242-.243-.252.743-.804 5.616-3.143 6.728-9.773 2.476-14.768a13.967 13.967 0 00-3.755-3.069c-1.26-.7-1.616-.845-3.092-1.254zm2.221 3.207c.442.267.884.55.982.63.158.127-.115.709-2.36 5.047-1.395 2.698-2.59 4.927-2.656 4.954-.065.027-.975-.93-2.022-2.125-1.372-1.566-1.878-2.238-1.81-2.404.132-.327 3.973-7.45 4.03-7.477.099-.045 1.723.392 2.366.636.367.14 1.029.472 1.47.74zm-7.761 1.357c-.866 1.623-1.64 2.984-1.721 3.023-.08.04-1.305-1.226-2.72-2.813L5.498 17.19l2.534-.179c2.51-.177 5.65-.258 5.916-.152.09.035-.404 1.072-1.435 3.006zm11.467 2.091c1.116 1.644 1.6 3.737 1.28 5.543-.28 1.571-1.486 3.39-2.929 4.41-.777.55-2.096 1.26-2.432 1.31-.327.048-2.141-2.08-2.021-2.372.052-.126 1.208-2.375 2.569-4.996a675.889 675.889 0 002.522-4.883c.094-.233.354.021 1.01.988zm35.827 17.09c1.347.718 2.718 1.418 3.046 1.557 1.321.561 1.55.408-5.364 3.612-3.51 1.626-6.432 2.953-6.494 2.95-.092-.007.953-11.166 1.072-11.448.129-.301 4.24 1.467 7.74 3.33zm-10.516 2.633l-.666 6.635-.98.457c-3.307 1.543-4.322 1.993-4.348 1.928-.017-.04.074-3.575.201-7.855.214-7.175.255-7.79.53-7.872.92-.273 4.995-.255 5.794.025.074.026-.165 3.033-.53 6.682zm6.49-1.577l-.912.468.423.947.423.948.879-.364c.483-.2.904-.427.936-.505.058-.14-.633-1.88-.767-1.934-.039-.016-.48.183-.982.44zm8.054 7.531c-.463 1.978-1.076 4.37-1.361 5.316-.477 1.58-1.805 4.742-2.032 4.838-.141.06-8.819-8.284-8.762-8.424.027-.066 2.991-1.483 6.588-3.149 6.35-2.943 6.537-3.018 6.474-2.604-.035.235-.443 2.045-.907 4.023zM6.584 21.603L9.13 24.51l-.529.177c-.29.097-1.726.6-3.19 1.118-1.464.518-2.715.94-2.781.937-.149-.006.303-3.093.835-5.702.22-1.085.404-2.071.407-2.19.002-.12.04-.202.085-.184.045.018 1.227 1.34 2.627 2.938zm22.84 9.998c-.528 1.31-.53 1.302.597 1.672.667.218.995.265 1.032.149.03-.094.191-.533.358-.975l.303-.803-.99-.403-.991-.402-.308.763zm11.912 12.136c-.132 4.404-.27 8.038-.309 8.078-.038.04-.723.372-1.523.739l-1.454.667-.62-.644c-.98-1.016-2.157-2.86-2.65-4.154-1.865-4.889.478-9.933 5.721-12.321.568-.259 1.042-.448 1.053-.42.012.027-.087 3.652-.218 8.055zM12.743 28.615l1.915 2.2L9.48 33.01l-5.177 2.194-.516-.969c-.775-1.457-1.532-4.693-1.185-5.065.204-.22 7.885-2.91 8.067-2.827.087.04 1.02 1.063 2.074 2.273zm4.443 5.081l.944 1.081-.313.527c-.591.995-1.753 2.284-2.58 2.861-2.093 1.462-4.286 1.725-6.574.79-.94-.385-2.145-1.161-2.678-1.725l-.29-.31 5.17-2.194c2.844-1.207 5.217-2.175 5.274-2.153.056.023.527.529 1.047 1.123zm37.201 21.4c4.79 4.574 4.845 4.634 4.633 4.936-.732 1.04-2.971 3.026-4.03 3.571l-.453.234-5.214-5.42c-2.868-2.98-5.222-5.463-5.231-5.517-.022-.13 5.144-2.546 5.314-2.484.074.027 2.315 2.132 4.981 4.68z" fill="#000"/></svg>