<svg width="70" height="69" fill="none" xmlns="http://www.w3.org/2000/svg"><path fill-rule="evenodd" clip-rule="evenodd" d="M33.447.19c-2.898.627-5.11 2.768-5.914 5.724-.472 1.735-.243 7.185.45 10.722.19.97.634 2.87.81 3.467.051.171-.114.322-.647.592-.394.198-1.027.56-1.408.802l-.692.442-.658-.678c-1.585-1.633-4.84-4.215-7.082-5.616-.83-.52-.923-.629-1.417-1.67-.515-1.087-.528-1.153-.528-2.599 0-1.332.037-1.563.366-2.265.46-.981 1.68-2.204 2.671-2.678.983-.47 2.181-.704 3.069-.6 1.122.131 1.656-.233 1.656-1.129 0-.8-.753-1.21-2.228-1.212-3.336-.005-6.628 2.435-7.638 5.659-.306.976-.378 3.09-.133 3.902.077.255.122.481.1.503-.023.023-.25-.022-.505-.1-.816-.247-2.928-.177-3.905.13-2.397.752-4.282 2.618-5.186 5.132-.904 2.513-.422 5.308 1.267 7.34.299.36.544.701.544.758 0 .056-.276.18-.614.274-1.34.375-3.032 1.688-3.906 3.033-.241.37-.61 1.13-.82 1.686-.343.912-.38 1.177-.38 2.697s.037 1.785.38 2.697c.21.557.579 1.316.82 1.686.874 1.345 2.566 2.658 3.906 3.033.338.095.614.23.614.302 0 .072-.242.405-.538.74-.295.336-.717.97-.937 1.41-2.111 4.221.253 9.61 4.85 11.052.977.307 3.088.377 3.905.13.255-.078.482-.122.504-.1.023.022-.022.249-.1.503-.247.816-.177 2.926.13 3.902.752 2.394 2.56 4.24 5.037 5.143 2.598.948 5.376.49 7.446-1.227.36-.299.699-.544.751-.544.053 0 .199.325.324.722.97 3.077 4.413 5.262 7.92 5.028 1.316-.088 2.035-.286 3.24-.894 1.552-.783 3.074-2.517 3.588-4.089.126-.385.248-.722.272-.75.023-.027.423.237.89.587.465.35 1.08.755 1.366.9.726.37 2.438.789 3.226.789 1.078 0 2.672-.39 3.753-.917 2.591-1.265 4.844-4.764 3.737-5.803-.31-.29-.92-.382-1.376-.207-.124.048-.43.536-.681 1.085-.836 1.832-2.42 3.061-4.424 3.43-2.142.394-4.259-.641-5.686-2.781-.442-.663-.454-.72-.61-2.9-.204-2.866-.788-6.334-1.436-8.524-.052-.175.138-.334.783-.658.468-.236 1.1-.6 1.403-.807l.553-.379.73.745c3.16 3.227 8.695 6.974 11.339 7.678 1.217.324 3.05.296 4.172-.063 3.168-1.015 5.443-3.96 5.636-7.297.108-1.863-.547-3.827-1.72-5.158-.297-.339-.541-.67-.541-.739 0-.067.325-.225.722-.35 3.078-.97 5.26-4.399 5.036-7.914-.199-3.118-2.303-5.975-5.036-6.835-.397-.125-.722-.27-.722-.323 0-.053.245-.39.544-.751 2.475-2.979 2.241-7.37-.55-10.35a8.082 8.082 0 00-3.37-2.12c-.976-.309-3.086-.38-3.905-.132-.255.078-.482.123-.504.1-.022-.022.023-.248.1-.503.248-.816.178-2.926-.13-3.902-.75-2.385-2.62-4.279-5.11-5.172-2.533-.91-5.464-.407-7.362 1.263-.336.295-.666.537-.734.537-.068 0-.226-.325-.351-.722-.513-1.624-2.178-3.493-3.805-4.269-1.62-.772-3.529-.987-5.321-.599zm4.087 2.593c1.772.828 2.89 2.391 3.207 4.48.277 1.828-.085 6.474-.752 9.643-.499 2.368-.593 2.653-.856 2.578-1.716-.486-5.46-.58-7.088-.176-.506.125-.944.228-.974.228-.079 0-.322-.945-.676-2.63-.67-3.183-1.03-7.824-.75-9.643.295-1.902 1.3-3.468 2.726-4.243 1.072-.583 1.803-.746 3.114-.694.962.038 1.328.12 2.05.457zm11.994 3.146a5.85 5.85 0 012.98 1.622c1.054 1.05 1.48 1.997 1.558 3.456.067 1.282-.091 1.996-.726 3.269-.374.75-.551.945-1.225 1.348-1.98 1.186-5.412 3.9-7.052 5.574l-.726.74-.691-.44a19.645 19.645 0 00-1.408-.803c-.533-.27-.699-.42-.648-.592.647-2.189 1.232-5.657 1.436-8.52l.159-2.22.508-.747c1.476-2.172 3.61-3.154 5.835-2.687zm-35.879 9.9c2.057.623 6.79 3.856 9.589 6.548l1.077 1.037-.692.756c-2.506 2.74-3.955 6.58-3.955 10.485v1.462l-.776.214c-2.608.718-5.575 1.873-8.057 3.136l-1.476.752-1.221-.154c-2.274-.287-3.816-1.347-4.714-3.242-.396-.834-.427-1.006-.427-2.324 0-1.372.018-1.46.504-2.442.904-1.827 2.4-2.828 4.657-3.112l1.201-.152 1.476.753c2.335 1.19 4.08 1.895 4.46 1.8.54-.137.863-.559.863-1.132 0-.676-.29-.925-1.822-1.57-2.621-1.103-5.052-2.491-6.11-3.489-.882-.833-1.587-2.187-1.716-3.295-.295-2.537 1.345-5.155 3.75-5.984.869-.3 2.48-.323 3.39-.048zm46.96.235c1.009.464 2.227 1.679 2.709 2.698 1.267 2.685.42 5.468-2.208 7.246-1.924 1.301-5.49 2.955-8.37 3.882-2.665.857-2.465.867-2.764-.133-.539-1.804-1.944-4.207-3.352-5.733l-.563-.61 1.146-1.088c2.823-2.678 7.196-5.69 9.377-6.459 1.054-.37 3-.276 4.026.197zm-22.192 5.624c4.64 1.148 8.442 4.964 9.628 9.665.43 1.707.43 4.599 0 6.306-1.193 4.73-4.964 8.497-9.698 9.689-1.708.43-4.602.43-6.31 0-4.735-1.192-8.505-4.96-9.698-9.689-.43-1.707-.43-4.599 0-6.306 1.329-5.267 5.62-9.102 11.165-9.978.921-.145 3.801.038 4.913.313zm-4.012 2.476c-.677.72-.175 1.845.824 1.845.643 0 1.043-.414 1.043-1.08 0-.974-1.206-1.468-1.867-.765zm6.437 2.454c-.39.212-.692.882-.562 1.25.43 1.22 2.201 1.056 2.201-.204 0-.604-.118-.83-.55-1.053-.467-.242-.632-.24-1.089.007zm-12.545.325c-.238.238-.395.537-.395.752 0 .436.669 1.147 1.079 1.147 1.057 0 1.613-1.234.885-1.962-.465-.464-1.066-.44-1.57.063zm34.298 2.04c2.88.46 4.856 2.707 4.856 5.523 0 2.975-2.054 5.161-5.225 5.561l-1.202.152-1.476-.752c-2.482-1.263-5.448-2.418-8.056-3.136l-.776-.214v-3.222l.776-.214c2.616-.72 6.124-2.098 8.2-3.22 1.174-.636 1.537-.695 2.903-.477zm-30.986 1.943c-.63.63-.312 1.691.574 1.913.714.18 1.52-.626 1.34-1.34-.222-.884-1.285-1.202-1.915-.573zm5.635-.058c-.618.575-.499 1.446.255 1.869.696.39 1.607-.193 1.607-1.027 0-.945-1.179-1.477-1.862-.842zm-11.357 2.915c-.352.447-.357.993-.013 1.43.736.934 2.215.178 1.956-1-.18-.82-1.42-1.094-1.943-.43zm17.04-.153c-.636.444-.492 1.565.24 1.873.547.23 1.012.13 1.342-.29.582-.738.117-1.786-.793-1.786-.275 0-.63.091-.789.203zm-11.235 2.844c-.316.266-.415.46-.415.815 0 1.198 1.57 1.563 2.138.497.253-.475.184-.846-.238-1.267-.489-.49-.94-.503-1.485-.045zm5.514.045c-.42.42-.49.792-.237 1.267.234.44.535.622 1.03.627 1.177.011 1.53-1.57.475-2.132-.475-.252-.847-.183-1.268.238zM20.41 39.26c.537 1.799 1.945 4.204 3.35 5.729l.564.61-1.146 1.087c-2.418 2.294-5.832 4.746-8.356 6.002l-1.27.632h-1.497c-1.347 0-1.577-.037-2.28-.366-1.567-.733-2.89-2.478-3.216-4.243-.315-1.705.333-3.592 1.669-4.854 1.272-1.202 4.74-3.05 7.907-4.212 1.479-.543 3.587-1.206 3.88-1.22.078-.004.256.372.395.835zm32.606-.032c3.685 1.23 7.564 3.182 9.061 4.561 2.389 2.2 2.43 5.68.095 8.019-.455.455-1.104.932-1.561 1.146-.704.33-.933.366-2.28.366h-1.498l-1.27-.632c-2.524-1.256-5.937-3.708-8.355-6.002L46.061 45.6l.563-.61c1.407-1.526 2.813-3.93 3.352-5.734.25-.835.26-.846.665-.765.227.046 1.295.377 2.374.738zm-24.66 1.262c-.84.722-.205 2.099.887 1.924.6-.096.955-.512.955-1.118 0-.984-1.083-1.457-1.842-.806zm12.548-.186c-.752.31-.92 1.502-.276 1.953.737.516 1.854-.002 1.854-.859 0-.767-.885-1.38-1.578-1.094zm-6.498 3.011c-.332.354-.388 1.103-.11 1.47.425.557 1.369.557 1.793 0 .292-.384.225-1.157-.129-1.489-.428-.402-1.166-.393-1.554.019zm-5.632 5.294c2.594 1.217 6.015 1.689 8.864 1.22.714-.116 1.394-.249 1.51-.294.245-.093.347.22.842 2.572.67 3.182 1.03 7.824.749 9.643-.497 3.214-2.913 5.187-6.062 4.949-2.634-.199-4.593-2.126-5.031-4.95-.184-1.184-.093-3.728.235-6.58.244-2.113.193-2.42-.447-2.71-.49-.224-.802-.184-1.191.153-.433.374-.67 1.671-.892 4.882l-.149 2.15-.509.75c-2.222 3.27-6.133 3.743-8.817 1.068-1.053-1.05-1.48-1.998-1.557-3.457-.068-1.283.091-1.997.727-3.269.394-.788.538-.937 1.43-1.482 2.026-1.239 5.206-3.765 6.846-5.44l.725-.74.752.48c.414.265 1.303.74 1.975 1.055z" fill="#000"/></svg>