<svg width="75" height="76" fill="none" xmlns="http://www.w3.org/2000/svg"><path fill-rule="evenodd" clip-rule="evenodd" d="M37.503 9.5c-7.568 0-8.516.032-11.488.17-2.967.14-4.994.622-6.766 1.327a13.623 13.623 0 00-4.936 3.287 14.016 14.016 0 00-3.214 5.046c-.686 1.813-1.16 3.888-1.295 6.922-.134 3.038-.167 4.005-.167 11.747 0 7.743.031 8.71.167 11.75.136 3.034.607 5.107 1.297 6.92a13.995 13.995 0 003.214 5.048 13.647 13.647 0 004.934 3.287c1.772.703 3.799 1.186 6.766 1.325 2.972.138 3.92.17 11.488.17 7.569 0 8.516-.032 11.489-.17 2.967-.14 4.994-.622 6.766-1.327a13.622 13.622 0 004.936-3.287 14.014 14.014 0 003.214-5.046c.687-1.813 1.16-3.886 1.295-6.92.135-3.04.167-4.009.167-11.75 0-7.74-.032-8.71-.167-11.75-.136-3.033-.608-5.106-1.297-6.919a14.005 14.005 0 00-3.214-5.048 13.644 13.644 0 00-4.934-3.287c-1.772-.701-3.801-1.186-6.768-1.324-2.97-.137-3.916-.171-11.487-.171zm0 5.135c7.44 0 8.323.029 11.262.165 2.716.128 4.191.59 5.174.983 1.3.515 2.23 1.134 3.205 2.13.975.997 1.579 1.947 2.082 3.277.383 1.005.836 2.514.96 5.292.135 3.006.163 3.908.163 11.517 0 7.61-.028 8.512-.162 11.518-.125 2.778-.576 4.287-.96 5.292a8.85 8.85 0 01-2.083 3.277 8.606 8.606 0 01-3.205 2.13c-.983.392-2.458.855-5.174.983-2.939.136-3.82.165-11.262.165s-8.323-.029-11.262-.165c-2.715-.128-4.19-.59-5.173-.983a8.613 8.613 0 01-3.205-2.13 8.853 8.853 0 01-2.083-3.277c-.382-1.005-.836-2.514-.96-5.292-.134-3.006-.162-3.908-.162-11.518 0-7.609.028-8.512.162-11.517.124-2.778.576-4.287.96-5.292.504-1.33 1.11-2.28 2.083-3.277a8.61 8.61 0 013.205-2.13c.982-.392 2.457-.855 5.173-.982 2.94-.137 3.822-.166 11.262-.166z" fill="#000"/><path fill-rule="evenodd" clip-rule="evenodd" d="M37.5 47.51a9.119 9.119 0 01-3.559-.724 9.287 9.287 0 01-3.017-2.062 9.524 9.524 0 01-2.015-3.085 9.697 9.697 0 010-7.278 9.524 9.524 0 012.015-3.085 9.287 9.287 0 013.017-2.061 9.119 9.119 0 013.558-.724 9.194 9.194 0 016.575 2.785A9.62 9.62 0 0146.797 38a9.62 9.62 0 01-2.723 6.724 9.194 9.194 0 01-6.575 2.786zm0-24.159c-3.8 0-7.443 1.544-10.129 4.29-2.686 2.748-4.195 6.474-4.195 10.36 0 3.885 1.509 7.61 4.195 10.358 2.686 2.747 6.33 4.29 10.128 4.29 3.8 0 7.442-1.543 10.128-4.29 2.687-2.748 4.196-6.474 4.196-10.359s-1.51-7.61-4.196-10.358c-2.686-2.747-6.329-4.29-10.128-4.29zm18.49-.266c0 .919-.357 1.8-.992 2.449a3.348 3.348 0 01-2.394 1.014c-.898 0-1.76-.365-2.394-1.014a3.503 3.503 0 01-.992-2.449c0-.918.357-1.799.992-2.448a3.348 3.348 0 012.394-1.014c.898 0 1.76.364 2.394 1.014.635.65.992 1.53.992 2.448" fill="#000"/></svg>