<svg width="307" height="88" fill="none" xmlns="http://www.w3.org/2000/svg"><path d="M6.33 78.469c6.205-8.131 13.513-15.453 21.736-21.777 5.17-4.139 11.101-8.51 17.57-12.978a186.269 186.269 0 0121.677-13.045 107.9 107.9 0 0112.593-5.424 83.191 83.191 0 0113.786-3.793 65.61 65.61 0 0114.646-1.192c4.97.087 9.907.813 14.675 2.158l.783.243c-.157.22-.368.425-.55.65-6.815 8.507-10.519 18.892-10.555 29.593a38.275 38.275 0 003.556 15.774c2.408 5.218 6.185 9.77 10.971 13.221a30.442 30.442 0 008.196 4.471 24.591 24.591 0 0010.407 1.438 25.352 25.352 0 009.701-3.023 23.912 23.912 0 007.536-6.517c3.615-4.806 5.332-10.668 4.852-16.565a39.66 39.66 0 00-4.492-15.534 52.136 52.136 0 00-9.599-13.06c-4.864-4.811-10.554-8.805-16.827-11.811a35.576 35.576 0 013.797-2.694c7.797-4.876 16.647-8.044 25.912-9.277a91.309 91.309 0 0126.038.117 98.134 98.134 0 0121.97 5.808 110.316 110.316 0 0116.995 8.929 138.172 138.172 0 0123.338 18.428 130.2 130.2 0 0113.139 14.797c3.165 4.224 5.304 7.386 6.901 9.879 1.424 2.14 2.301 3.588 3.03 4.679l-1.856-.793c-5.291-2.26-10.117-4.222-14.228-5.784-8.219-3.1-13.612-4.744-14.06-3.849-.449.896 3.937 3.798 11.511 7.949 3.791 2.099 8.346 4.468 13.47 7.022l1.943.969c.831.425 1.699.783 2.595 1.068.578.173 1.17.3 1.771.376.763.1 1.537.098 2.299-.005a7.583 7.583 0 004.153-1.944 15.023 15.023 0 003.099-4.869l1.984-4.022c10.565-22.503 17.668-41.293 15.767-41.934-1.901-.641-12.032 17.063-22.622 39.57l-1.363 2.977a30.706 30.706 0 00-1.622-3.854 80.625 80.625 0 00-6.266-10.855 112.213 112.213 0 00-13.131-16.116 135.668 135.668 0 00-24.299-19.91 116.06 116.06 0 00-18.5-9.737 105.693 105.693 0 00-24.255-6.475 100.43 100.43 0 00-29.015-.086c-10.712 1.46-20.932 5.179-29.907 10.88a45.534 45.534 0 00-7.196 5.605c-1.055-.338-2.11-.675-3.175-.94a65.464 65.464 0 00-16.482-2.216 73.187 73.187 0 00-16.053 1.612A88.286 88.286 0 0077.97 20.97a111.707 111.707 0 00-13.025 5.908 178.783 178.783 0 00-21.838 13.865c-6.466 4.723-12.274 9.288-17.423 13.694-8.127 6.722-15.156 14.548-20.859 23.225a51.705 51.705 0 00-3.85 7.256c-.683 1.728-.99 2.574-.84 2.69.15.118 2.034-3.407 6.244-9.147l-.048.009zM130.536 27.8c.501-.64 1.06-1.244 1.619-1.848 6.102 2.846 11.603 6.733 16.224 11.463a46.254 46.254 0 018.273 11.645 33.643 33.643 0 013.625 13.27c.287 4.373-1.046 8.697-3.768 12.226a15.783 15.783 0 01-4.962 4.3 16.73 16.73 0 01-6.389 2.003c-4.597.048-9.056-1.526-12.508-4.415-3.759-2.783-6.707-6.428-8.562-10.587a31.8 31.8 0 01-2.671-13.058 38.988 38.988 0 012.357-13.194 39.158 39.158 0 016.713-11.796" fill="#95BB5F"/></svg>