<svg width="203" height="53" fill="none" xmlns="http://www.w3.org/2000/svg"><path d="M4.414 50.562h1.452l1.09 1.575c.068.084.19.237.19.338 0 .085-.122.136-.19.136v.118h1.953v-.118c-.346-.034-.536-.356-.726-.627l-1.055-1.472c.847-.136 1.47-.576 1.47-1.49 0-1.405-1.055-1.642-2.23-1.642H2.995v.136c.139.05.243.118.243.287v4.537c0 .152-.104.237-.243.288v.118H4.69v-.118c-.156-.034-.26-.119-.26-.288v-1.778h-.017zm0-.88v-1.405h1.85c.536 0 1.175 0 1.175.711s-.657.694-1.175.694h-1.85zm7.641 2.268h2.818c.173 0 .242-.101.293-.253h.121V53h-.12c-.035-.152-.121-.254-.294-.254H10.74v-.102c.156-.05.26-.135.26-.287v-3.589c0-.17-.104-.254-.26-.288v-.101h4.01c.173 0 .26-.102.295-.254h.103v1.303h-.103c-.052-.152-.122-.254-.294-.254h-2.697v.948h1.66c.172 0 .259-.101.293-.254h.104v1.27h-.121c-.035-.152-.121-.254-.294-.254h-1.66v1.066m6.242-2.082v2.489c0 .169.104.254.26.304v.102H17.05v-.102c.155-.05.259-.135.259-.304v-3.589c0-.152-.104-.254-.26-.288v-.101h1.885v.101c-.104.034-.19.102-.19.22 0 .136.069.271.138.39l1.107 1.845 1.106-1.811c.069-.136.173-.254.19-.407 0-.135-.052-.203-.19-.237v-.101h1.832v.101c-.155.034-.259.136-.259.288v3.589c0 .169.104.254.26.304v.102h-1.574v-.102c.156-.05.26-.135.26-.304v-2.489l-1.712 2.743-1.625-2.743zm8.004-1.489v.101c-.156.034-.26.136-.26.288v3.589c0 .169.104.254.26.304v.102h-1.573v-.102c.155-.05.26-.135.26-.304v-3.589c0-.17-.105-.254-.26-.288v-.101h1.573zm3.008 3.978c0 .169.104.254.26.304v.102h-1.488v-.102c.156-.05.26-.135.26-.304v-3.589c0-.17-.104-.254-.26-.288v-.101h1.712v.101c-.087 0-.173.068-.173.153 0 .084.07.169.121.22l2.386 2.319v-2.42c0-.153-.104-.255-.26-.289v-.101h1.487v.101c-.156.034-.26.119-.26.288v3.589c0 .17.104.254.26.304v.102h-1.59v-.102s.172-.05.172-.135c0-.152-.172-.254-.276-.355l-2.368-2.286v2.489m7.157-.407h2.817c.173 0 .26-.101.311-.253h.121V53h-.12c-.035-.152-.122-.254-.312-.254h-4.132v-.102c.156-.05.243-.135.243-.287v-3.589c0-.17-.104-.254-.242-.288v-.101h4.01c.173 0 .26-.102.311-.254h.104v1.303h-.104c-.052-.152-.138-.254-.31-.254h-2.698v.948h1.677c.173 0 .242-.101.294-.254h.104v1.27h-.121c-.035-.152-.121-.254-.294-.254h-1.677v1.066m6.344-.981h1.072l.882 1.252s.12.187.12.288c0 .102-.12.136-.207.17v.1h1.867v-.1c-.31-.051-.501-.356-.674-.593l-.847-1.151c.726-.153 1.262-.474 1.262-1.253 0-1.134-.95-1.286-1.884-1.286h-2.922v.101c.156.034.26.119.26.288v3.589c0 .169-.087.254-.26.304v.102h1.573v-.102c-.155-.05-.259-.135-.259-.304v-1.388l.017-.017zm0-.796v-.982h1.608c.363 0 .813 0 .813.491 0 .457-.45.491-.813.491h-1.608zm9.266 1.49c.121.254.346.49.346.762 0 .135-.121.203-.242.236v.102h1.815v-.102c-.26-.067-.346-.22-.467-.44l-1.677-3.148a.757.757 0 01-.086-.339c0-.118.104-.203.207-.237v-.101H50.19v.101c.12.051.224.119.224.254 0 .119-.034.22-.086.305l-1.625 3.25c-.104.186-.173.322-.398.355v.102h1.643v-.102c-.121-.033-.26-.118-.26-.236 0-.237.225-.56.329-.762h2.04-.035zm-.328-.61h-1.418l.692-1.405.726 1.405zm7.813.897c.173 0 .26-.101.294-.253h.104V53H59.8c-.034-.152-.138-.254-.294-.254h-3.803v-.102c.156-.05.242-.135.242-.287v-3.589c0-.17-.086-.254-.242-.288v-.101h1.573v.101c-.155.034-.259.119-.259.288v3.182h2.49zm3.752-3.571v.101c-.156.034-.242.136-.242.288v3.589c0 .169.103.254.242.304v.102h-1.574v-.102c.156-.05.242-.135.242-.304v-3.589c0-.17-.103-.254-.242-.288v-.101h1.574zm5.773 3.571c.156 0 .242-.101.294-.253h.104V53h-.104c-.052-.152-.12-.254-.294-.254H65.04v-.237l2.593-3.335H65.49c-.173 0-.26.102-.312.254h-.103v-1.303h.103c.052.135.121.254.312.254h3.906v.186l-2.61 3.386h2.247zm3.752-3.571v.101c-.156.034-.26.136-.26.288v3.589c0 .169.104.254.26.304v.102H71.21v-.102c.155-.05.242-.135.242-.304v-3.589c0-.17-.087-.254-.242-.288v-.101h1.573zm3.008 3.978c0 .169.103.254.259.304v.102h-1.47v-.102c.156-.05.242-.135.242-.304v-3.589c0-.17-.103-.254-.241-.288v-.101h1.694v.101s-.173.068-.173.153c0 .084.069.169.138.22l2.386 2.319v-2.42c0-.153-.104-.255-.242-.289v-.101h1.486v.101c-.155.034-.259.119-.259.288v3.589c0 .17.104.254.26.304v.102H78.28v-.102s.173-.05.173-.135c0-.152-.173-.254-.277-.355l-2.35-2.286v2.489m8.886-1.287c-.173 0-.26.102-.312.254h-.103v-1.168h.103c.052.153.139.254.312.254h2.109v.119c-.156.05-.242.152-.242.321v.931c0 .17.103.254.242.288v.085c-.761.406-1.625.71-2.472.71-.657 0-1.332-.118-1.867-.524-.554-.406-.865-1.084-.865-1.76 0-1.456 1.331-2.286 2.68-2.286.881 0 1.642.39 1.901.39.052 0 .104-.034.139-.068l.103.05-.536 1.1-.103-.05c0-.406-1.124-.61-1.504-.61-.847 0-1.59.576-1.59 1.456 0 .965.708 1.473 1.642 1.473.484 0 .95-.068 1.383-.288v-.677h-1.02zm13.639-.981c0-1-.553-1.947-1.47-2.438-.5-.254-1.088-.339-1.642-.339-1.677 0-3.111 1-3.111 2.76a2.77 2.77 0 001.47 2.437c.5.254 1.088.339 1.641.339 1.677 0 3.112-1.016 3.112-2.776v.017zm-1.21 0c0 1.083-.813 1.861-1.902 1.861s-1.901-.778-1.901-1.861c0-1.084.812-1.846 1.901-1.846 1.09 0 1.902.762 1.902 1.846zm4.356.88h1.055l.899 1.252s.121.187.121.288c0 .102-.121.136-.208.17v.1h1.867v-.1c-.311-.051-.518-.356-.674-.593l-.847-1.151c.709-.153 1.245-.474 1.245-1.253 0-1.134-.951-1.286-1.885-1.286h-2.904v.101c.156.034.242.119.242.288v3.589c0 .169-.104.254-.242.304v.102h1.573v-.102c-.155-.05-.259-.135-.259-.304v-1.388l.017-.017zm0-.796v-.982h1.591c.38 0 .812 0 .812.491 0 .457-.449.491-.812.491h-1.591zm9.266 1.49c.121.254.346.49.346.762 0 .135-.121.203-.26.236v.102h1.816v-.102c-.277-.067-.346-.22-.467-.44l-1.677-3.148a.774.774 0 01-.104-.339c0-.118.104-.203.225-.237v-.101h-1.729v.101c.121.051.225.119.225.254 0 .119-.052.22-.086.305l-1.625 3.25c-.104.186-.173.322-.398.355v.102h1.625v-.102c-.121-.033-.259-.118-.259-.236 0-.237.207-.56.311-.762h2.057zm-.328-.61h-1.418l.691-1.405.727 1.405zm7.813.897c.173 0 .242-.101.311-.253h.104V53h-.104c-.034-.152-.138-.254-.311-.254h-3.803v-.102c.156-.05.242-.135.242-.287v-3.589c0-.17-.086-.254-.242-.288v-.101h1.573v.101c-.138.034-.242.119-.242.288v3.182h2.49m11.824.085l-.104.068s-.104-.102-.19-.102a.367.367 0 00-.19.068c-.761.44-1.573.796-2.455.796-1.711 0-3.215-.948-3.215-2.776 0-1.829 1.504-2.76 3.215-2.76.761 0 1.435.203 2.092.576.155.084.328.203.484.254.086 0 .155-.051.224-.102l.104.068-.76 1.117-.104-.068c0-.135 0-.237-.104-.321-.501-.423-1.193-.61-1.832-.61-1.141 0-2.127.627-2.127 1.846 0 1.218 1.003 1.861 2.127 1.861.847 0 1.936-.474 1.936-.846v-.101l.104-.068.76 1.117m5.584-.389c.121.254.346.49.346.762 0 .135-.121.203-.26.236v.102h1.815v-.102c-.259-.067-.345-.22-.466-.44l-1.677-3.148a.774.774 0 01-.104-.339c0-.118.104-.203.225-.237v-.101h-1.729v.101c.121.051.225.119.225.254 0 .119-.052.22-.104.305l-1.625 3.25c-.086.203-.173.322-.397.355v.102h1.625v-.102c-.121-.033-.26-.118-.26-.236 0-.237.208-.56.311-.762h2.075zm-.329-.61h-1.417l.691-1.405.726 1.405zm5.325-.084h1.072l.881 1.252s.121.187.121.288c0 .102-.121.136-.207.17v.1h1.849v-.1c-.311-.051-.501-.356-.674-.593l-.847-1.151c.709-.153 1.245-.474 1.245-1.253 0-1.15-.951-1.286-1.867-1.286h-2.922v.101c.156.034.26.119.26.288v3.589c0 .169-.104.254-.26.304v.102h1.573v-.102c-.138-.05-.259-.135-.259-.304v-1.388l.035-.017zm0-.813v-.982h1.607c.381 0 .813 0 .813.491 0 .457-.432.491-.813.491h-1.607zm6.845 1.794h2.818c.173 0 .242-.101.311-.253h.104V53h-.104c-.052-.152-.121-.254-.311-.254h-4.131v-.118c.155-.051.259-.136.259-.288v-3.59c0-.17-.104-.254-.259-.288v-.101h4.01c.173 0 .242-.102.311-.254h.104v1.303h-.104c-.052-.152-.121-.254-.311-.254h-2.697v.948h1.677c.173 0 .259-.101.311-.253h.104v1.269h-.121c-.035-.152-.104-.254-.294-.254h-1.677v1.067m13.087-2.809l-.104-.068c0-.17-.087-.254-.225-.339a2.83 2.83 0 00-1.538-.474c-.45 0-1.332.017-1.383.627 0 .406.414.49.743.524 1.193.119 3.146.136 3.146 1.744 0 1.32-1.417 1.727-2.506 1.727-.675 0-1.401-.136-2.006-.458-.121-.05-.259-.152-.363-.152a.25.25 0 00-.19.085l-.121-.05.588-1.304.121.05c0 .678 1.417.931 1.936.931.484 0 1.348-.118 1.4-.744 0-1.118-3.855.135-3.855-2.167 0-1.303 1.314-1.693 2.42-1.693.64 0 1.262.17 1.85.423a1.1 1.1 0 00.415.153c.086 0 .156-.051.207-.085l.121.05-.639 1.253m5.497 3.2c0 .169.104.237.259.304v.102h-1.573v-.102c.156-.05.26-.135.26-.304v-1.524l-1.314-1.794c-.173-.237-.363-.49-.674-.559v-.101h1.988v.101c-.121.034-.242.085-.26.22 0 .153.104.254.19.373l.64.88.622-.88c.069-.102.191-.22.191-.339 0-.152-.139-.203-.26-.237v-.101h1.902v.101c-.311.068-.484.322-.657.559l-1.331 1.794v1.524m7.278-2.59l-.104-.051c0-.44-1.176-.66-1.591-.66-.345 0-1.106.05-1.175.508 0 .897 3.475-.119 3.475 1.845 0 1.066-1.262 1.422-2.161 1.422a4.738 4.738 0 01-1.885-.373.855.855 0 00-.19-.068c-.069 0-.121.051-.173.085l-.103-.034.466-1.083.104.034c0 .508 1.349.643 1.729.643.346 0 1.175-.085 1.175-.542 0-.93-3.371.22-3.371-1.81 0-1.067 1.159-1.423 2.058-1.423.968 0 1.815.525 2.005.525.069 0 .121-.034.173-.085l.086.051-.536 1.016m5.117 2.573c0 .169.104.237.242.304v.102h-1.556v-.102c.139-.05.242-.135.242-.304v-3.183h-1.313c-.173 0-.26.102-.294.254h-.104v-1.303h.104c.034.152.121.254.294.254h3.682c.173 0 .259-.102.294-.254h.121v1.303h-.121c-.035-.152-.121-.254-.294-.254h-1.297v3.183zm4.806-.407h2.818c.173 0 .259-.101.294-.253h.103V53h-.103c-.052-.152-.139-.254-.294-.254h-4.149v-.118c.155-.051.259-.136.259-.288v-3.59c0-.17-.104-.254-.259-.288v-.101h4.01c.173 0 .242-.102.294-.254h.104v1.303h-.104c-.052-.152-.121-.254-.294-.254h-2.696v.948h1.676c.173 0 .26-.101.312-.253h.103v1.269h-.103c-.052-.152-.121-.254-.312-.254h-1.676v1.067m6.24-2.065v2.489c0 .169.104.237.26.304v.102h-1.487v-.102c.155-.05.259-.135.259-.304v-3.589c0-.152-.104-.254-.259-.288v-.101h1.867v.101c-.087.034-.19.102-.19.22 0 .136.069.271.138.39l1.106 1.845 1.124-1.811c.069-.136.173-.254.173-.407 0-.135-.052-.203-.173-.237v-.101h1.832v.101c-.155.034-.259.136-.259.288v3.589c0 .169.104.237.259.304v.102h-1.59v-.102c.156-.05.259-.135.259-.304v-2.489l-1.728 2.743-1.625-2.743m10.355-.084l-.104-.051c0-.44-1.176-.66-1.573-.66-.346 0-1.107.05-1.176.508 0 .897 3.458-.119 3.458 1.845 0 1.066-1.262 1.422-2.144 1.422-.64 0-1.297-.119-1.884-.373a.855.855 0 00-.19-.068c-.07 0-.121.051-.173.085l-.104-.034.467-1.083.103.034c0 .508 1.349.643 1.729.643.329 0 1.176-.085 1.176-.542 0-.93-3.371.22-3.371-1.81 0-1.067 1.158-1.423 2.057-1.423.985 0 1.815.525 2.005.525.069 0 .104-.034.173-.085l.086.051-.535 1.016z" fill="#898A8D"/><path d="M98.483 26.712c.242-.237.242-.711.242-.711H96.79c-.242 0-.484.237-.726.237-.484.237-.726.474-1.21.474v.237c.484.237.484.473.968.947s.726 1.185 1.452 1.422h1.453v-.237c-.243-.71-.243-1.421-.243-2.37zm-1.693-7.093c-.243 0-.243.237-.243.237-.726 0-1.936-.237-2.662 0 .484.71.484 1.422.484 2.607 1.21 0 2.42.237 3.371.237v-.237c.162-.316.323-.553.484-.711v-.237c.242-.474.484-.711.484-1.185 0 0 0-.237.242-.474-.968 0-1.694.237-2.178-.237h.017zM87.385 7.804c0-.237-.242-.474-.484-.711-.242-.711-.484-1.185-.242-1.66-.484-.236-.726-.236-1.21-.236h-.726v1.185c.484.474 1.21.948 1.936 1.422 0 .237.242.237.242.237h.726c-.242 0-.242-.237-.242-.237zM62.043 26c-.242 0-.484.238-.968.238-.242.237-.727.474-1.21.71.483.238.726.712.968.948.484.474.968 1.185 1.452 1.66.242-.238.484-.238.726-.238h.484c-.726-1.659-.968-2.37-1.452-2.843V26zm-5.809-6.144l.242.237v-.237c.968-.474 1.21-.948 1.936-1.422v-1.896c-.726 0-1.21 0-1.936-.237-.242.711-.484 1.185-.726 1.896.242.237.242.474.484.711v.948zm5.325 0c-.726 0-1.694-.237-2.42 0 .241.71.241 1.422.241 2.607.968 0 1.695.237 2.663.237v-2.844l-.242-.237s0 .237-.242.237zm-5.549 4.266v-.948h-.242c-.242-.237-.485-.237-.968-.237v.71c0 .949.242 2.134.483 3.082h.242c.727 0 1.21 0 1.695.236.161-.157.242-.316.242-.474v-.236c-.484-.948-1.21-1.185-1.453-2.133zm58.412 1.405v-.237c-.484.237-.484.474-.968.474-.484.237-.726.237-1.21.474v.237c.484.237.484.474.968.948s.726.948 1.452 1.422h1.936c-.484-.474-.726-1.422-.484-2.607-.242-.237-.242-.474-.242-.711h-1.452zm-.242-6.382s-.242 0-.242.237c-.726 0-1.936-.237-2.42 0 .242.71.242 1.422.242 2.607 1.21 0 2.42.237 3.371.237v-.237c.242-.237.242-.474.242-.711 0-.474.242-1.185.242-1.896-.726 0-1.21 0-1.452-.237m76.045 11.832c-.484-.237-.968-.237-1.452-.237h-.726v.948h2.178c-.242-.237-.242-.474 0-.71zm0-26.254h-1.936c0 .71-.242 2.133.242 2.37.484 0 .726.237 1.21.237 0-.711.242-1.422.484-1.896v-.711zM180.804 22.7h-3.613c-.242.237.242 1.185.242 1.659l.242.237h2.42c.242-.237.484-.237.484 0 0-.474 0-1.185.242-1.422V22.7M37.893 42.082c-.968.237-1.936 0-2.904 0 0 .474 0 .948.242 1.185.726.474 1.694.71 2.662.948v-2.133zm-2.161-23.648c.161.158.242.316.242.474.242-.948.726-1.896.726-2.844-.484 0-.968-.237-1.694-.237 0 1.185.484 1.896.726 2.607zm-7.727.711c-.242 0-.242.237-.242.237 0 .237-.242.474-.242.71 0 .238 0 .475-.242.712 0 .474-.242.948-.242 1.422.726.71 2.662 0 3.613 0V21.04c.242-.474.242-1.422.242-2.133-1.21 0-1.936-.237-2.904.237h.017zm-6.033 3.792h-3.613c-.242.237.242 1.185.484 1.659l.242.237c.726 0 1.694-.237 2.178-.237.242 0 .484 0 .484.237.242-.711.242-1.185.242-1.66v-.236M7.243 29.081h1.694c-.484-.473-.726-1.658-.484-2.606 0-.474.242-.711.242-.948-.242 0-.242.237-.484.237-.484 0-.968 0-1.452-.237-.242.237-.484.474-.726.474h-.242v1.895c.484.474.726.948 1.452 1.185zM3.146 42.082c-1.21.237-2.178 0-3.146 0 0 .71.242 1.422.484 1.896.726.237 1.452.474 2.178.474 0 0 .242 0 .484-.237-.242-.711-.242-1.66 0-2.133zm3.371-22.7h-.242c-.242.237-.484.237-.726 0 0 1.659.484 1.896.484 2.37v.474c.484.237.968.237 1.694.237v-.237c0-.474.242-.711.242-.948h.242c.242-.474.242-.711.484-1.185v-.474c-.726-.237-1.694 0-2.178-.237z" fill="#68368B"/><path d="M93.902 33.804c-.242-.71-.726-.948-.968-1.896-.242 0-.484.237-.726.474-.484 0-.726.237-1.21.237-.242 0-.484.237-.726.474l-.726.711c-.726.948-1.21 1.66-1.936 2.133.242.237.242.474.242.711v.474c.242.237.242.474.484.711.726.237 1.452.71 2.178.474h.726c.484-.237.726-.474.968-.711 0-.474-.242-.711-.242-1.185 0-.71.484-.948.968-1.185.484-.237.726-.237.968-.474h.242c0-.237-.242-.474-.242-.948zM93.66 12.29c-.161.157-.322.236-.484.236.242.711.484.948.726 1.422v2.133c.727-.237 2.42 0 2.905 0v.237c.726 0 1.21 0 1.694-.237v-1.659c-.242-.948-.968-1.896-1.452-2.844-.484-.237-.726-.474-1.21-.71-.484.71-1.453.947-2.179 1.421zm.242 10.41h.242c0-1.185-.242-2.133-.726-2.844v-.711c-.484.237-.726.474-1.21.711v2.607h.726c.242.237.726.237.968.237zm.242-14.66c-.726-.473-1.21-1.184-1.936-1.658-.242 0-.726 0-.968.237-.484 0-.484.237-.726.237-.484.474-.968 1.185-1.694 1.422-.484.237-.968.237-1.21.237v.237c.968.947 1.936 2.132 2.662 3.537h2.178c0-.237 0-.474-.242-.71 0-.475 0-.949-.242-1.423.242-.71.484-.947 1.21-1.184.242 0 .726-.237.968-.237h.242c-.242-.237-.242-.474-.242-.711v.017zM73.14 41.845v-1.422c0-.474 0-.711-.483-.711-.968 0-1.21-.474-1.936-.711-.242 0-.242-.237-.484-.237h-.242c-.242.71-.726 1.185-.968 1.659-.162.158-.242.316-.242.474-.242.237-.484.474-.727.948 1.937 1.185 3.613 1.896 4.823 1.896 0-.237.243-.237.485-.237-.242-.711-.242-.948-.242-1.66h.017zM57.928 22.463c.484.237.726.237 1.21.237 0-1.185-.242-1.896-.484-2.844v-.237h-.242v-.474c-.726.237-.968.711-1.694 1.185-.484.71-.968 1.185-1.694 1.422 0 .237 0 .474-.242.71 1.21.238 1.936 0 3.146 0zm88.112 15.37c-.242.237-.484.237-.726.474.242.474.484.71.726 1.185v1.896c1.452-1.185.968-3.081 1.452-4.25l.726-.71h-.242c-.484.71-1.21.948-1.936 1.422m.242-26.035c.484 1.422.968 2.607 1.21 3.538.484 0 1.21.237 1.694.237v.237h.726v-4.249c-.484-.474-.968-.947-1.694-1.184-.484.71-1.452.947-1.936 1.421zm.242-4.485c-.242-.948-.968-1.185-1.21-2.133-.242.237-.484.474-.726.474-.484.237-.726.237-1.21.237l-.485.474c-.161 0-.242.079-.242.237.727.71 1.453 1.422 1.937 2.37.242-.237.484-.474.968-.474.242-.237.484-.237.968-.237V7.33zM125.52 39.949c-.242-.474-.242-.711-.484-.711-.968-.237-1.452-.711-2.178-.711-.242-.237 0-.237-.242-.237h-.242c-.484.474-.726.948-.968 1.659-.242 0-.242.237-.242.237 1.452.71 2.904 1.185 4.339 1.422v-1.66m-5.532-4.248c0 .474.242.711.484.948.484.237.968.474 1.452.948h.484c0-.474.242-.711.484-.948-.726-.71-1.694-1.422-2.42-2.133 0 .237-.242.474-.242.711-.242.237-.242.474-.242.474zm-8.695-20.093c.726-.237 2.42 0 2.904 0 0 0 0 .237.242.237.484 0 .968 0 1.452-.237v-.71c.242-.712 0-1.66.242-2.608-.968-.474-1.694-1.421-2.662-1.896-.968.948-1.936 2.133-2.42 2.844.242 0 .242.237.242.237v2.133zm.242 6.619c0-1.422-.242-2.133-.484-2.844-.242 0-.242-.237-.242-.237v-.711c-.726.474-.968.948-1.452 1.185-.242.474-.484.948-.484 1.422v.948h1.452c.242.237.726.237 1.21.237zm74.593 15.37c-.242-.237-.242-.474-.242-.711v-.237c-.484.237-.726.237-1.21.237-1.21 1.422-2.421 2.133-3.613 2.844v1.185c0 .237 0 .474.242.474.968-.474 1.21-1.185 1.936-1.66.242-.236.726-.71.968-.71.726 0 .968.474 1.694.474 0-.474-.242-.948 0-1.422v-.237c.161 0 .242-.079.242-.237h-.017zm-20.762 4.249c.726 0 1.21.237 1.694-.237 0-.948 0-1.896.242-3.081-.968-.474-1.694-1.659-2.904-1.896v.237c0 3.775-.968 3.538-.968 4.486v.237c.726 0 1.452.237 1.936.237m11.824-17.012c-.242-.474-.484-1.422-.484-2.133h-.242s0-.237-.242-.237v.237c-.242 0-.484.237-.968 0h-.484c0 .237-.242.474-.242.474.726.71 1.694 1.185 2.42 1.659h.242zm-.242-9.683c0-.237-.242-.474-.242-.71-1.21-.712-2.178-1.423-3.146-2.134-.242.474-.484.948-.968 1.422 0 .158-.081.316-.242.474-.242.237-.484.474-.726.948v.237s0 .237-.242.237v.948c.242.711.242 1.185 0 1.659v.237h.242v.71h.242c.242.238.484.238.726.238h2.178v-.237c.242 0 .242-.237.484-.474l.726-.711c.242-.237.242-.474.484-.948.242 0 .242-.237.484-.237v-1.659zM37.65 38.307c.485.71.727.948.969 1.422v1.422c-.242.237-.242.474-.242.71.968-.236 2.662 0 3.146 0v.238c.726 0 1.21 0 1.694-.237-.726-.474-1.452-1.422-2.42-2.607-.242-.711-.726-1.185-1.21-1.896-.242.237-.726.474-1.21.71-.242 0-.484.238-.726.238zm-.967-2.37c0-.474.484-.948.968-1.185l-.968-.948s-.484-.474-1.452-1.185c-.726.474-.968 1.185-1.936 1.422-.242.237-.727.237-1.21.237 0 .237.242.237.242.237v.474c0 .237.242.474.242.711v.711s0 .237.241.474c0 .237.242.474.485.474.484.237 1.21.71 1.936.71h1.936c0-.236-.242-.473-.242-.71 0-.474 0-.948-.242-1.422zm-.709-26.001c0-.947-.242-2.132-.968-3.08-.484.474-.968.948-1.452 1.185-.484 0-.726 0-1.21.237v.237s0 .237.242.473v.474c0 .237.242.711.242.711v.474c0 .237.242.474.484.711.484.237 1.21.711 2.178.711v-.237c.484 0 .968.237 1.452.237-.242-1.659-.968-1.896-.968-2.133zM17.857 41.608v-.237c-1.452-.237-2.904-.711-3.613-2.133 0 .237-.242.474-.484.948 0 0 0 .237-.242.237-.242.474-.484.71-.726.948v.237l-.242.237v.237s0 .237-.242.237c0 .237.242.474.242.71v1.186h4.581c0-.237.242-.474.484-.711 0-.237.242-.237.484-.474 0-.474-.242-.948-.242-1.422zm-4.339-7.567c-.484.237-.726 1.185-.968 1.422-.242.237-.242.474-.242.711s.242.474.484.711c.484.237.968.474 1.21.711v-3.555h-.484zm-9.905 7.804c.726-.237 2.42 0 2.904.237h.242c.484 0 .968.237 1.452-.237.242-.948 0-1.896.242-3.318-.726-.237-1.452-.948-2.178-1.422v2.607c0 .948-1.21 1.185-2.662 1.185v.948zm8.937-15.37c-.484-.237-.968-.237-1.452-.474h-.726c-.968-.237-1.21-.474-1.452.71-.242.949-.242 1.897.484 2.37v.237c.161 0 .323.08.484.237h.484c.726-.71 1.694-.947 2.662-.947-.242-.474-.484-1.422-.484-2.133zM6.76 16.081c.725 0 1.21 0 1.693-.237v-3.318c-.968-.474-1.694-1.659-2.662-1.896-.242 0-.242.237-.242.237v4.723c.484.237.726.237.968.237s.242 0 .242.237m6.033-14.879c-.968.237-1.452.474-1.452.474H8.92c0 .474.242.948.484 1.422.242 0 .484.237.726.237 0 0 .242 0 .242.237v-.237c.968-.711 1.694-.711 2.904-.711-.242-.474-.484-.948-.484-1.422z" fill="#9568A9"/><path d="M90.514 38.78c-.726 0-1.21-.236-1.936-.236-.968-.237-2.42-.711-2.662.474v1.185c0 .237.242.71.242 1.185 1.452-.711 2.904-1.422 4.339-2.37v-.237m6.534-9.226c-.726-.474-1.21-.71-1.694-1.184-.242-.474-.242-.711-.726-.948l-.242-.474v-.237c0 .237-.242.237-.242.237-.484-.237-.968-.237-1.452-.237v.71c-.242.712-.242 1.186 0 1.66v.473c0 .474 0 .711.242 1.185v.474c.242-.474 1.936-.474 2.42-.71h.968c.242 0 .484-.238.726-.475v-.474zM82.32 40.66c-.484 0-.968-.474-1.21-.711-.726.237-.968.237-.968.237 0 .237-.242.474-.242.474a5.597 5.597 0 00-1.694 1.659c.242.237.484.71.968 1.185.968 0 2.178-.237 3.146-.711V40.66zm17.374-17.723h-3.147v.237c0 .948-.242 2.133.484 2.37.484.237.726 0 1.21 0h.969c.242 0 .484 0 .484.237.242-.948.242-1.66.484-2.37v-.237c-.162-.158-.323-.237-.484-.237zM94.87 8.989h-.242c-.726.236-1.452.236-1.936.71 0 0-.242.237-.242.474.242.474.242.711.242 1.185v.948c.484-.237.484-.474.968-.474.726-.474 1.453-.71 1.937-1.422h.242v-.237c-.242-.474-.484-.948-.968-1.184zM77.722 1.422v1.422c.242.474.726.71 1.21.71.242.238.484.238.726.475 0 0 .242 0 .242.237.484 0 1.21.237 1.936.71.726-.473 1.452 0 2.42-.473 0-.474-.242-.711-.484-1.185 0-.237-.242-1.185-.484-1.896-.968-.237-2.178-.474-3.146-.474h-.484c-.484.237-.968.237-1.694.237 0 0 0 .237-.242.237zm-.726 40.897v-1.422l.242-.237v-.474h-3.855v.237c0 .474 0 .71.242.948v1.896c.484 0 1.21.237 1.936.474.484 0 1.21-.237 1.694 0v-.237c0-.474-.242-.711-.242-1.185h-.017zm-7.71-3.775c-.484-.474-1.452-.948-1.936-1.659-.484.237-.968.474-1.452.948-.726.237-1.21.71-1.936 1.185 1.452 1.185 2.662 1.896 3.855 2.844l.726-1.422c.484-.711.726-1.185 1.21-1.896h-.484.017zm-7.001-8.752l-.242-.237c-.484-.237-.968-.71-1.452-1.184-.242-.474-.485-.711-.968-.948l-.242-.474c-.484-.237-.969 0-1.695 0v.474c0 .71-.242 1.185 0 1.895v.237c0 .474.242.948.242 1.185v.474c.484-.474 1.937-.474 2.42-.71h.969c.242 0 .726-.238.968-.475v-.237zM74.35 4.249c.969-.237 1.937-.474 2.905-.474V.948c-2.904.237-3.37 1.659-3.855 1.659.484.474.484 1.185.968 1.659m70.704 33.567c.242-.237.484-.474.726-.474.726-.474 1.694-.711 1.936-1.422h.242c.484-.71.484-1.422.968-2.133-.484 0-1.452.948-2.178.711 0 0-.242 0-.484.237l-1.452 1.422v.948c.242.237 0 .474.242.711zm-6.034 3.775c.485-.474 1.453-.237 1.937-.237.242 0 .484 0 .968-.237l.242.237h.968c-.242-.711-.242-1.185-.242-2.133v-1.185h-.242c-1.21.948-2.42 1.659-4.339 2.37.242.474.242 1.185.726 1.185m-4.357-.711c-.484.237-1.21.237-1.936.237-.484 0-.968-.237-1.452-.237-.242.237-.484.474-.968.71h.242c0 .238.484.712.726 1.186 1.21.237 2.42.237 3.371.474v-2.37m-5.307.948v-1.422c-.726-.237-1.452-.474-2.178-.948h-1.452v2.37c1.21.237 2.662.474 3.855.71-.242-.236-.242-.473-.242-.71h.017zm-7.71-4.012c-.484-.474-1.452-.711-1.936-1.422a11.92 11.92 0 00-1.694.711l-1.21 1.185c1.21.71 2.42 1.185 3.855 1.896 0-.237.242-.237.242-.237.242-.711.726-1.185.968-1.896l-.242-.237h.017zm-7.243-8.752c-.484-.473-1.21-.71-1.452-1.184-.484-.474-.484-.948-.968-.948l-.242-.711s0 .237-.242 0h-1.452v.71c0 .712-.242 1.186 0 1.66v.473c0 .474 0 .711.242 1.185v.474c.242-.474 1.936-.71 2.42-.71h.968c.242 0 .484-.238.726-.475v-.474zm1.21-5.671c0-.236-.242-.473-.242-.71v-.237h-1.452v.237c0 .948-.242 2.133.484 2.37h1.21v-1.66zm9.646-21.277h.484l.726 1.422c.968-.474 1.936-.711 3.146-.711V.948c-1.694.237-3.146.474-4.581.948 0 .237.242.237.242.237m60.574 37.816c-.726 0-.968-.474-1.694-.474-.242 0-.726.474-.726.71-.727.475-1.211.949-1.695 1.423.242.237.484.948.968 1.422 1.211-.237 2.179-.711 3.147-.948v-2.133zm1.936-9.683c-.242-.474-.484-.948-.484-1.421-.242-.237-.484-1.896-.484-2.607h-.484c-.726-.237-1.452-.237-1.936-.474-.242.237-.484.237-.726.474-.727.237-1.453.474-2.179.474l-.242.237s0 .237-.242.237c1.936 1.184 3.147 2.132 3.855 3.317.968-.474 1.936 0 2.905-.237m-6.5-27.896c.242.474.726.474 1.21.71.242.238.484.238.726.475.484.237 1.21 1.185 1.694.948 1.21-.474 1.936 0 2.904-.474 0-.474-.242-.711-.484-1.185V2.37c-1.936 0-1.694-1.185-6.033-1.422V2.37m-.743 39.475v-.948l.242-.474v-.474c-1.694.71-2.905.948-3.613.948v1.896c.484 0 1.21.237 1.936.237.484 0 1.21-.237 1.694 0 0-.474-.242-.711-.242-1.185h-.017zm-10.874-4.723h-.242c-.726.474-1.21.948-1.936 1.422v.71c0 .949 0 1.66-.242 2.37h2.178c.484.238.726 0 1.21 0h.484s0-.236.242-.236c.242-.711.484-.948.726-1.422.242-.237.242-.474.484-.711-1.21-.474-2.178-1.185-2.904-2.133zm5.549-16.555c-.242-.237-.484-.474-.484-.948h-1.21c-.484 0-1.21 0-1.694-.237 0 .237-.242.237-.242.237-.242 0-.484 0-.968.237-.242.237-.242.474-.242.474.726.71 1.694 1.185 2.42 1.896h2.662c.242 0 .242.237.484.237-.484-.474-.726-1.185-.726-1.896zm-2.645-8.989c-.484-.474-1.21-.947-1.452-1.421h-.242c-.484.236-.968.71-1.452.947-.484.474-1.21.948-1.694 1.185 0 .237 0 .474-.242.474v2.607c.726 0 1.452 0 2.178.237.242 0 .484-.237.968 0 .242 0 .484 0 .726-.237v-.237l.726-1.422c.484-.474.968-.948 1.21-1.659-.242-.237-.484-.474-.726-.474zm3.855-9.445h.484c.484.474.484 1.185.968 1.422.969 0 1.695.237 2.421.237h.484V.948h-4.581v.71c0 .238.242.475.242.475M35.732 41.608c-.242-.711-.484-1.185-.484-2.133V38.29c-.726 0-1.21 0-1.694-.237h-.242c-.968 0-2.42-.71-2.662.474v.474c.726.948 1.452 1.896 2.178 2.607h.484c.484-.237.726-.237.968-.237s.242 0 .242.237c.242 0 .242-.237.242-.237.242 0 .484.237.968.237z" fill="#6C388C"/><path d="M31.86 31.214c-.726.711.242 2.133.726 2.37h.726c.726-.237.968-.948 1.452-1.422l-1.936-1.896v.474c-.242.237-.726.237-.968.474z" fill="#592C82"/><path d="M32.586 37.359c-.484-.474-.242-1.185-.726-2.133 0-.237 0-.474-.242-.948-.968 0-1.452-.237-2.42-.237-.242 0-.485-.237-.968-.237-.242 0-.485-.474-.727.237v.711c.727.948 1.453 1.896 1.695 2.37l.726.711c.242 0 .484 0 .484.237.484-.711 1.452-.711 2.178-.711zm-9.179-8.041l.968.474c.484.237.968 1.185 1.694.948.968-.474 1.936 0 2.904-.474-.242-.474-.484-.71-.484-1.185 0-.473-.484-1.895-.484-2.843 0 .237-.242.237-.484.237-.726-.237-1.21-.237-1.936-.474-.242.237-.484.237-.726.474-.727.237-1.453.474-2.179.474l-.242.237v1.422c.242.473.726.71.969.71zm10.147-17.266c-1.21-.237-2.42-.71-2.662.474v1.185c0 .711.242 1.896.726 1.896.484-.237 1.452-.237 1.936-.237h2.178c-.242-.474-.242-1.185-.242-1.896 0-.474-.242-.71-.242-1.185-.484 0-1.21-.237-1.694-.237zM29.215 8.04c-.242-.236-.484-.236-.726-.236-.242-.237-.484-.237-.726-.237.726.948.484 1.895 1.694 2.843l-.242 1.185c.484.237.968.237 1.452.237.484-.474 1.21-.474 1.936-.474-.242-.474-.242-1.422-.484-2.133-.242-.473-.242-.71-.242-.947-.968 0-1.694-.237-2.662-.237zm-6.759-5.67v.237c.242.474.968.474 1.21.71.242.238.484.238.726.238.726.474 1.21 1.185 1.936 1.185.968-.711 1.694 0 2.662-.474 0-.474-.242-.948-.484-1.422 0 0 0-.474-.242-.948-1.21-.474-2.904-.711-4.581-.711h-1.21V2.37m-8.471 35.7c-.484-.474-1.452-.948-1.694-1.422h-.242l-1.452.711c-.726.474-1.21.948-1.694 1.422-.242 0-.242.237-.242.474v2.607c.726 0 1.21-.237 1.936 0h1.694c0-.237.242-.237.242-.237.242-.711.484-.948.726-1.422s.726-.948.968-1.422c-.242-.237-.242-.474-.242-.711zm7.728-12.78c0-.237-.242 0-.484 0-.726 0-1.936.237-2.663.237.484.71.969 1.185 1.21 1.422.485.473 1.21 1.184 2.179 2.132 0-1.184 0-2.606-.242-3.774m-7.97-4.503l.242-.948c-.484 0-.726-.237-.968-.237 0 0 0 .237-.242.237h-.726c0 .237-.242.474-.242.237V22.7h.726c1.452-.474 2.662-.237 4.097-.237h.484c-.242-.237-.484-.474-.484-.948l-2.178-.237c-.242 0-.484-.237-.726-.474M12.308 10.41c-.726.237-1.21.474-1.694.948-.484.237-1.21.711-1.694 1.185v.711c-.242.948-.242 1.66-.242 2.37h2.178c.484.237.726 0 .968.237.323 0 .565-.079.726-.237v-.237c.242-.474.484-.71.726-1.185 0-.948.242-1.896.242-2.844-.484-.237-.968-.474-1.21-.948zm5.065-8.514c.242.237.242.474.484.474h.242c.242.237.484.71.726.948.969.237 1.695.474 2.42.71h.727c0-.947.242-1.895 0-2.843L17.39.948v.948M7.001 3.08c-.726-.236-1.21-.71-1.694-1.184 0-.158-.08-.316-.242-.474-.726 0-1.694 0-2.42.237-.242.237-.242.71 0 1.185v.237c0 .474 0 .948.242 1.185v.237s0 .237.242.237c.484-.474 1.694-.474 2.178-.711h.968c.242 0 .484-.237.726-.474V3.08z" fill="#6C388C"/><path d="M52.38 37.359c1.693 0 3.145 2.37 3.145 3.08 0 .712-.968 3.082-3.146 3.082s-2.662-2.133-3.146-3.081v-1.896c3.146-.237.242-1.185 3.146-1.185zm51.653.237c1.936 0 3.146 2.133 3.146 3.08 0 .712-.968 3.082-3.146 3.082-2.179 0-2.663-2.133-3.147-3.081v-2.133c3.147 0 .484-.948 3.147-.948zm50.218 0c1.936 0 3.371 2.133 3.371 3.08 0 .712-.968 3.082-3.371 3.082-1.936 0-2.42-2.133-2.904-3.081v-2.133c2.904 0 .242-.948 2.904-.948zm45.378 0c1.694 0 3.146 2.133 3.146 3.08 0 .712-.968 3.082-3.146 3.082s-2.662-2.133-3.146-3.081v-2.133c3.146 0 .242-.948 3.146-.948z" fill="#592C82"/><path d="M60.833 10.867c-.484.711-1.21 1.185-1.936 1.422-.243.237-.485.237-.485.237l-.242.237c.242.474.484.711.727 1.185v2.133c.726-.237 2.42 0 2.904.237h.484c.242-.71.726-1.896 1.452-3.318v-.237c-.968-.474-1.694-1.422-2.904-1.896z" fill="#9568A9"/><path d="M147.008 8.278c-.726.474-1.452.237-1.936.71 0 .237-.242.237-.242.237v.237c.484.474.726 1.185 1.21 1.66.484-.238 1.452-.475 1.936-1.186V9.7c.484-.71.726-1.184 1.21-2.132-.726.237-1.694.948-2.178.71zm39.345 29.318v.237c.484-.237 1.21-.237 1.936-.237-.726-.711-1.452-1.896-1.936-2.844-.242.948-.242 2.133 0 2.844z" fill="#6C388C"/><path d="M32.102 33.567c-.242-.237-.242-.474-.484-.71-.242-.712-.484-1.186-.242-1.66-.484-.237-.968-.237-1.21-.237h-.726c-.242.948-.242 2.133.242 2.607.726 0 1.21.237 1.936.237h.484v-.237zm0-26c0-.237-.242-.474-.242-.948-.484-.474-.484-1.185-.484-1.66-.242 0-.726 0-1.21-.236-.242.237-.484.237-.726.237 0 .71-.242 2.133.242 2.37.726 0 1.452.237 2.178.237l.242.237s0-.237.242-.237h-.242z" fill="#68368B"/><path d="M18.341 43.03c.726 0 1.21.237 1.936.237h.242c.162-.158.243-.316.243-.474 0-.948-1.21-.948-2.42-1.422v1.659zM199.387 0C201.323 0 203 1.659 203 3.775c0 1.896-1.694 3.775-3.613 3.775-2.178 0-3.855-1.896-3.855-3.775 0-2.133 1.694-3.775 3.855-3.775zm0 7.093c1.694 0 3.371-1.422 3.371-3.318 0-1.896-1.694-3.318-3.371-3.318-1.936 0-3.371 1.422-3.371 3.318 0 1.896 1.452 3.318 3.371 3.318zm.242-5.434c.484 0 1.21 0 1.21.948 0 .71-.242.948-.968 1.185l1.21 1.422s0 .237.484.237v.237h-1.21l-1.21-1.896h-.242v1.185c0 .237 0 .474.484.474v.237h-1.936V5.45h.242c.484 0 .484-.237.484-.474V2.37c0-.237-.242-.474-.484-.474h-.242v-.237h2.178zm-.726 1.896c.484 0 1.21-.237 1.21-.948 0-.237-.242-.711-.726-.711h-.484v1.659z" fill="#6C388C"/><path d="M96.547 25.527c-.484-.474-.484-1.422-.484-2.37v-.237H94.37s0 .237-.242.237c-.484-.237-.726 0-1.21-.237h-.726v2.37c0 .237.242.474.484.948.484 0 .968 0 1.452.237h.242c.726-.237.968-.711 1.694-.711h.242c.162-.158.242-.158.242 0v-.237zm-5.549-11.816l.726 2.133c.484.237 1.21.237 1.694.237 0-.474.242-1.422 0-1.896l-.726-1.422h-1.694v.948zm-3.855-8.277c-.726.71.484 2.133.726 2.37h.726c.726-.474 1.21-1.185 1.695-1.422.241-.237.483-.237.725-.474h.484l-2.904-2.133c-.242.237-.242.71-.484 1.185-.242.237-.726.237-.968.474zM67.592 35.463l-2.662-1.896c0-.237-.242-.237-.242-.474-.484 0-1.21 0-1.695-.474v-.237s-.242 0-.242.237c-.242.237-.484 1.66-.726 2.133-.242.711-.484 1.185-.968 1.66.242 0 .242.236.484.236.726.711 1.452 1.659 2.178 1.896 1.21-.711 2.179-1.422 3.613-1.896 0-.237 0-.71.243-1.185h.017zm-9.906-4.012c0-.71-.242-1.185-.484-2.133v-1.895c-.484-.237-.968 0-1.694 0 .242 1.422.968 2.843 1.936 4.248 0 0 .242 0 .242-.237m3.873-5.907c-.242-.474-.242-1.422-.242-2.37v-.237H59.38v.237c-.726-.237-.968 0-1.452-.237-.726 0-.968.237-1.694.237 0 .237.242.474.242.71.242.949.968 1.423 1.21 2.37.726 0 1.21 0 1.694.238h.242l1.453-.711h.484v-.237zm4.581-17.96c-.726-.711-2.178-.474-2.904-.948 0-.237-.243-.237-.243-.237h-.242c0 .474-.242 1.896-.484 2.133-.484.71-.726 1.184-1.21 1.895 1.21.474 1.694 1.66 2.904 2.133 0 0 0-.237.243-.237a15.755 15.755 0 013.146-4.249c-.484-.236-.726-.237-1.21-.473v-.017zm-7.728 8.514c0-.474.242-1.422 0-1.659a1.79 1.79 0 00-.484-1.185c-.484.948-.968 1.896-1.21 2.844h1.694zm87.144 25.527c0-.474.242-1.422 0-1.896 0-.474-.242-.711-.726-1.422h-1.695v.948c0 .948.243 1.659.485 2.133.726.237 1.21.237 1.936.237zm-5.549-36.885l2.178 1.422.484-.474c.242 0 .484-.237.726-.237.484 0 .726-.237.968-.237.323-.158.565-.237.726-.237v-.237c0-.474-.242-.948-.242-1.422-.968-.237-2.178-.474-3.613-.948-.242.71-.484 1.185-.726 1.896-.242.237-.242.474-.484.474m-19.811 29.555c0-.237-.242-.474-.484-.71-.484 0-.968-.238-1.452-.475-.726-.71-2.178-.474-2.904-.948v-.237h-.242c-.242.474-.484 1.896-.726 2.37-.484.474-.484.948-.968 1.66.968.71 1.936 1.421 2.904 1.895.968-.474 2.178-1.185 3.371-1.659-.242-.474-.242-.71 0-1.185.242-.237.484-.474.484-.71h.017zm-6.275-9.225c-.242-.474-.484-1.422-.484-2.37v-.237h-1.694s0 .237-.242 0c-.484 0-.726.237-1.21 0h-1.452v1.185c.484.71.968 1.185 1.21 2.133h1.694V26h.242c.484-.474.968-.711 1.452-.711 0-.237.242-.237.242-.237h.242zm2.161-13.001c.484-.474.968-.71 1.452-.948.726-1.184 1.694-2.37 2.662-3.537-.726-.237-1.21-.237-1.694-.711-.242-.237-.726-.237-.968-.237-1.21.948-2.662 2.133-3.855 3.317.968.474 1.694 1.66 2.42 2.133m74.576 18.908c-.242.237-.242.711-.242.948.242.237.484.474 2.178.948.242 0 .242-.237.484-.237-.242-1.185-.484-2.37-.968-3.538l-.726 1.422c0 .237-.484.237-.726.474m-4.823 5.417v-2.844h-.726v2.844h.726zM184.175 22.7h-2.905c0 1.185 0 2.133-.242 3.08v.475h.484c.726 0 1.21-.237 1.937-.474.242-.237.484-.237.726-.237V22.7z" fill="#592C82"/><path d="M187.321 7.567c-.484-.237-.726-.474-.726 0 .726.948.968 1.895.968 1.895s-.968 1.185-1.21 2.133c.484-.237 1.21-.237 1.936 0 .242-.948.726-2.37 1.21-3.775h-1.452c-.242-.236-.484-.236-.726-.236" fill="#6C388C"/><path d="M168.253 33.567v-.948c-.726-.237-1.21-.237-1.694-.474v-.237h-.242c-.242.474-.484 1.896-.726 2.37 0 0 0 .237-.242.237v.711h-.242c-.242.237-.242.474-.484.711.968.474 1.694 1.659 2.662 2.133.726-.474 1.452-.948 2.178-1.185-.726-.948-1.21-2.133-1.21-3.318zm2.887-23.631c-.242-.237-.242-.71 0-1.184.242-.237.484-.474.484-.948.162 0 .242-.08.242-.237-.968-.237-1.452-.237-2.178-.711-.242 0-.484-.237-.726-.237-.484.71-.726.948-.726.948v.948c0 .473.484-.237.968.71h-1.694v2.607c.968-.71 2.178-1.422 3.613-1.896M35.732 39.475c0 .948 0 1.659.242 2.133.726.237 1.452.237 2.178.237v-1.896c-.242-.474-.484-.948-.968-1.422h-1.452v.948zM25.585 22.7c-.969.237-1.937.237-3.147.237v3.538h.242c.727 0 1.453-.237 1.936-.474.485-.237.727-.237.969-.474v-2.844.017zm6.517-17.503c-.726.474.242 2.133.484 2.37.242 0 .484-.237.726-.237.484-.237.968-.474 1.21-.948-.484-.711-.968-1.185-1.694-1.896-.242.474-.726.474-.726.71zM12.55 22.937c-.242 0-.726.237-.968 0h-.968s-.242 0-.242.237c.242 1.185.242 2.133.726 2.37h.242c.484 0 .726.474 1.452.474.242 0 .242-.237.484-.237.242-.237.242-.474.484-.711v-1.185c.484-.474 1.21-.711 1.21-.711h.484v-.237c-.968 0-1.936-.237-2.904 0z" fill="#592C82"/><path d="M10.856 25.527c-.484-.474-.726-1.185-.968-2.37 0 0 0-.237.242-.237-.161 0-.323-.08-.484-.237H6.5c-.242 1.185-.242 2.37.242 2.607h1.452c.242 0 .484-.237.726-.237l.242.237c.242 0 .484 0 1.21.237h.484z" fill="#6C388C"/><path d="M13.034 34.041c-.968-.237-1.452-.237-2.178-.71-.726-.712-2.178-.475-2.904-.949l-.242-.237h-.242c-.242.474-.242 1.896-.726 2.133-.242.711-.484.948-.726 1.422h.242v.711c.726.474 1.452 1.422 2.178 1.896 1.21-.711 2.42-1.422 3.613-1.896 0-.474 0-.71.242-1.185.242-.237.484-.948.726-1.185h.017zM1.21 41.608c.484.237 1.21.237 1.936.237v-.948c-.726 0-1.452 0-2.178.237v.474h.242z" fill="#592C82"/><path d="M18.341 24.816c-.242-.237-.484-1.422-.242-1.896h-.242s-.242 0-.242-.237h-.242v.237c-.242 0-.484.237-.726 0h-.484l-.484.474c.968.237 1.694.948 2.178 1.422h.484z" fill="#9568A9"/><path d="M8.937 19.619c0 .71-.242 1.422-.726 2.133 0 0 0 .237-.242.237.242.237.484.237.726 0 .726.237 1.21.237 1.694.237.485.237.727.237.969.237v-2.37c-.242-.237-.485-.237-.727-.237-.484-.237-.968-.237-1.694-.237zm1.919-12.526c-.726-.474-2.178-.237-2.904-.948v-.237c-.161 0-.242.079-.242.237-.242.237-.484 1.659-.726 2.133-.484.71-.726 1.184-.968 1.895.968.237 1.694 1.66 2.662 2.133v-.237c.968-.71 2.178-1.422 3.613-1.896-.242-.237-.242-.71 0-1.184.242 0 .242-.237.484-.474v-.711c-.726-.237-1.21-.237-1.936-.711h.017zM2.178 1.659C1.21 1.896.484 2.133.484 2.844c0 .948.968 1.422 2.178 1.659-.242-.474-.484-.948-.484-1.66V1.66z" fill="#592C82"/><path d="M176.205 43.03c0-.237.242-.237.484-.474 0-.474-.242-.711-.242-1.422v-.237c-.484 0-1.936-.474-3.371-1.422-.161.158-.242.316-.242.474-.484.474-.726 1.185-1.21 1.659 0 .158-.08.316-.242.474v.474c.242.237.242.474.242.71 1.21.238 2.42.475 3.855.475h.242c.242-.237.242-.474.484-.711z" fill="#9568A9"/><path d="M96.547 16.792c-.484 0-2.42-.71-2.904 0v2.133c0 .237.242.474.242.474.726-.237 1.936-.237 2.662-.237v-2.37zm-34.747 0c-.725 0-2.661-.474-3.146 0v.237c0 .237 0 1.185.242 1.896v.474c.727-.237 1.937 0 2.663-.237.242-.711.242-1.422.242-2.37zm9.405-12.78c.242 0 .726.237.968.237.242.237.484.237.968.237.242 0 .484-.237.726-.237-.242-.237-.242-.711-.726-1.185h-1.452c-.484 0-.484.237-.484.71h-.242l.242.238zm-7.728 2.133c.485.474 1.453.474 2.179.474-.242-.711.242-1.896 0-2.37v-.237h-.242c-.726.474-1.453.948-2.178 1.659.16.158.242.316.242.474zm54.316 24.832l-.726-1.422c-.484-.237-1.21-.237-1.694-.237h-.484v1.422c.242.237.484.237.726.474v.474c.726.474 1.452.474 2.42.711-.242-.474-.242-.948-.242-1.422zm-3.855-14.659c-.484 0-2.42-.71-2.904 0v2.133c.161.158.242.316.242.474.726-.237 1.936-.237 2.662-.237.242-.711 0-1.422 0-2.37zM125.52 2.607c-.242 0-.484 0-.726-.237-.242 0-.484.237-.726.237-.484 0-.484.237-.484.474l-.242.237s0 .237.242.237.484.237.968.237c.242 0 .484.237.726.237.242-.237.726-.237.968-.474-.242-.237-.484-.711-.726-.948zm62.043 28.133c-.242.237-.484.237-.968.237v.237c-.484.237-.968 0-1.452 0h-.242c.161.158.242.316.242.474v1.422h.726c.242-.948.726-1.422 1.936-1.422v-.948h-.242zm.242-26.017c-.968.237-1.694-.237-2.662.237v.237l-.242.237h-.242c.726.474 1.21 1.185 1.452 1.659h.242c.242-.237.484-.237.968-.237.242.237.484.237.726.237-.242-.474-.242-1.66-.242-2.37zm-6.517 12.78v2.607h.242c.726-.237.968-.711 1.452-1.185 0 0 0-.237.242-.237-.726-.474-1.21-.948-1.936-1.185zm-14.003 12.289c-.484 0-.968 0-1.21.237v.711h.242l.484.474c0 .237.242.237 0 .474.484.237.968.474 1.452.474 0-1.659 0-2.37-.968-2.37zm9.404-27.185c-.242 0-.484 0-.484-.237h-.242c-.242 0-.484.237-.726.237-.484 0-.484.237-.484.474s0 .237-.242.237c.242 0 .242.237.242.237.484 0 .726.237.968.237h.242c.484 0 .968-.237 1.452-.237-.242-.237-.242-.711-.726-.948zM41.281 42.556c-.484 0-2.42-.711-2.904 0-.242.474 0 1.185 0 1.896.968 0 1.694.237 2.904.237v-2.133zM28.973 30.977h-.242c-.726.237-1.694-.237-2.42.237 0 .158-.081.316-.242.474h-.242c0 .158-.081.237-.242.237-.162 0-.242.158-.242.474v.237l.726.711h1.452c.242-.237.484-.237.968 0 .242 0 .484 0 .726.237-.242-.71-.242-1.659-.242-2.607zm-.484-23.884c.242.237.484.237.726.237h.242c-.484-.474-.484-1.66-.484-2.37-.968.237-1.694-.237-2.662.237v.237l-.242.237h-.242c.968.71 1.452 1.185 1.694 1.659.242-.237.484-.237.968-.237zM6.275 42.556c-.484 0-2.42-.474-2.904 0v2.133h2.904c.242-.711 0-1.185 0-2.133zm4.097-12.526c-.161 0-.242-.08-.242-.238-.484-.237-1.452-.237-2.42-.237h-.242c-.242.474-.242.711 0 1.185v.237l.484.474c.161.158.242.316.242.474.484.474 1.452.474 2.178.474-.242-.71 0-1.896 0-2.37zm0-26.255c-.726-.237-1.694-.474-2.42-.474-.242 0-.242.237-.484.237v1.185l.726.71v.475c.726.237 1.452.237 2.178.474-.242-.711.242-1.896 0-2.607z" fill="#B5A0CD"/><path d="M188.289 4.012h.726c.484 0 .968.237 1.452.237a9.85 9.85 0 01.484-1.185c0-1.659-.968-1.896-.968-1.896-.484 0-1.452.948-2.178 1.185v.237c0 .474.242.948.484 1.422zM97.273 31.451c0-.237 0-.474-.242-.948-.484.474-.968.711-1.694.711h-.968c-.484 0-1.21 0-1.21.237l.242.237v.237c0 .237.242.474.242.711.242.474.484.711.726 1.185 0 .711.242.948.484.948s.484-.237.726-.237v-.237a10.517 10.517 0 001.936-2.607l-.242-.237zM85.45 40.186v-1.659h-1.211c-.484.474-1.21.71-1.694.948 0 .474.242 1.185.242 1.896v1.422c.968-.474 1.936-.711 3.146-1.185-.242-.474-.484-.948-.484-1.422zm13.76-22.683v-1.185h-.485v.237c-.484.237-.968.237-1.694.237v.237c0 .948 0 1.422-.242 2.133.484.71 1.452 0 2.42.237h.727c-.243-1.422-.727-1.896-.727-1.896zM84.723 4.723c.242 0 .484 0 .726-.237.484 0 .968.237 1.452.474.242-.237.726 0 .726-.474.242-.237.484-.711.484-.948-1.452-.948-2.904-1.659-4.339-2.133 0 .71.484 1.422.484 1.659 0 .474.242.948.484 1.659M62.285 31.451v-.948c-.484.474-1.21.711-1.936.711h-.968c-.485 0-.969 0-.969.237v.474c.242.237.242.474.242.711.242.474.726.711.726 1.185 0 .711.242.948.484.948s.485 0 .727-.237c.484-.237.968-.71 1.452-.71.242-.712.484-1.423.726-1.66 0-.237-.242-.474-.484-.71zM70.963 4.96c.242-1.185-.484-1.185-1.452-1.185-1.21-.237-2.42-.474-3.371.474 0 .474-.242.948-.242 1.422v.71c0 .238 0 .475.242.475l.242.237c.484.237.968.474 1.452.474.726-.474 1.452-1.185 2.42-1.66l.726-.71V4.96h-.017zm78.448 26.254h-.968c.242.474.484.711.484 1.185-.726.474-1.452.948-1.937 1.66h.242c.162 0 .404-.08.727-.238.484-.237.968-.71 1.21-.71h.242v-.475c0-.474.242 0 0-1.422zm-11.341 9.209c-.968.237-1.936.474-2.904.474v2.37h3.371c.242-.474.242-.948.484-1.422-.484 0-.968-.711-.968-1.422m11.6-35.7v-.948c-.484.474-1.21.71-1.936.71h-.969c-.484 0-.968 0-.968.238v.71s.242.238.242.475c.242.474.484.71.726 1.185 0 .71.242.948.484.948.243 0 .485 0 .727-.237.484-.237.968-.711 1.452-.711.242-.474.242-.711.484-1.185V4.96l-.242-.237zM136.86 3.538l2.178.71h.243c.242 0 .726 0 .726-.236.242-.711.484-1.185.968-1.66-1.694-.473-3.147-.947-4.823-1.184 0 .474.484 1.185.484 1.422 0 .237 0 .474.242.948m-22.214 27.439v-.948h-.242c-.484.474-.968.711-1.694.711h-.968c-.484-.237-.968 0-.968.237v.474c0 .237.242.474.242.711.242.474.484.711.726 1.185 0 .711.242.948.484.948s.484-.237.726-.237c.484-.474.968-.948 1.452-.948.242-.474.484-1.185.726-1.422 0-.237-.242-.474-.484-.71zm3.855-24.595h.242c.484.474.968.71 1.936.71.484-.473.968-.947 1.452-1.184 0-.158.081-.237.242-.237 0-.474.726-.711.968-1.185h-.242c.484-1.185-.484-1.185-1.21-1.422-1.694.948-2.42 1.659-2.42 1.659l-1.21 1.185c0 .158.081.316.242.474zm-4.097 9.936v.237c0 .948 0 1.422-.242 2.133.242.474.726.237 1.452.237v-2.607h-1.21zm75.302 10.394c-.968-.237-1.452-.474-2.421-.711-.242 0-.242.237-.242.474v.237c0 .474.485 1.659.485 1.896.242.71.484.947.484 1.658.242 0 .484 0 .726-.237.484.237.968.237 1.694.474.242 0 .484 0 .726-.237.242-.71.484-1.185.726-1.895-.242-.474-.484-1.185-.968-1.66h-1.21zm-.726 13v-1.185c0-.237-.242-.237-.242-.474h-.484c-.726 0-1.453 0-1.937.237-.242.948 0 1.659 0 2.607v.948c1.211-.474 2.421-.948 2.905-1.422 0-.237-.242-.474-.242-.711zM189.724 26c-.484-.71-.726-1.184-.968-2.132-.242-.474-.726-.948-.968-1.185-.727 0-1.211 0-1.695-.237h-.484c-.242.237-.484.237-.968.237v2.607c.484.237.968.237 1.694.237.242 0 .484.237.484.237.242-.237.484-.237.727-.237.726 0 1.21.474 2.178.474zm-3.371-13.71c0 .236.484.473 1.21.473 0 0 .242-.237.484-.948-.484 0-1.21.237-1.694.474zm-3.146 7.092c-.485.474-.969.948-1.453 1.185h-.242c-.242.71-.242 1.185-.242 1.896 1.21 0 1.937 0 2.905-.237.726 0 .968 0 1.452-.237v-1.185c-.726-.711-1.452-1.185-2.178-1.896 0 .237-.242.237-.242.474zm-2.403.711c0-1.185.242-1.659.242-2.607-.484-.474-1.21 0-1.937 0-.726-.237-1.694-.71-2.42 0-.242.237-.242.474-.484.711s-.484.711-.726.948c-.242 0-.242.237-.484.237l.242.237c0 .474.242.474.242.71 0 .712.242 1.186.484 1.423 0 .237.242.474.484.474h4.339l.242.237c0-.474-.242-1.66-.242-2.37h.018zm-10.632-.711s0-.237.242-.237.726.237 1.21 0l-.484-.474c0-.71.242-1.422 0-1.896v-.71h-1.694c-.484-.238-1.21-.238-1.694-.238.242 1.185.726 2.37 1.694 3.318.242 0 .484.237.726.237zm-.484-13h.242c.726.474 1.21.71 1.936.948.484-1.185 1.21-2.37 2.663-3.081.242-.948-.485-.948-1.453-1.185h-.484c-1.21.948-2.178 2.133-3.146 3.08 0 0 .242 0 .242.238zm-126.004 35.7h-.242v.237c-.484.237-1.21.237-1.694.237v.237c0 .71-.242 1.422-.242 1.896h2.904c.484 0 1.21-.711 1.452-1.185 0-.711-.968-.474-2.178-1.422zM28.247 26.475v.237c0 .71.484 1.896.726 2.133 0 .473.242.947.242 1.658.323 0 .645-.079.968-.237.484 0 .968.237 1.452.474.242-.237.726 0 .726-.474l.242-.237c-1.452-1.184-2.904-2.606-3.855-3.774-.484 0-.484.236-.484.236m2.144-12.78V12.29c0-.237-.242-.237-.484-.237h-.726v2.37s-.242 1.66-1.453 3.318c0 .158.081.316.242.474v.237c.969 0 1.937.237 2.905.237.242-1.185.484-2.133.726-2.844-.726 0-.968-1.422-1.21-2.133zm5.082 4.96c-.484-.948-.968-1.659-.968-2.844-.484 0-.726 0-.968.237-.242 0-.726-.237-1.21-.237h-.242s-.242 0-.242.237v.237c-.242.237-.242.948-.484 1.422 0 1.185-.242 2.607-.242 3.318v.948c.484 0 .968 0 1.694.237.968-.711 1.936-1.66 2.662-2.844v-.711zm-13.034 3.792c1.21 0 2.178.237 2.904 0 .726 0 1.21 0 1.452-.237 0-.474.242-1.185.242-1.66.242-.71.242-1.184.726-1.895l-.242-.237v-.237c-.968 1.422-2.662 2.607-4.823 3.08-.242.475-.242.712-.242 1.186M12.066 43.03c0-.237.242-.474.242-.474-.161 0-.242-.08-.242-.237 0 .237-.242.237-.242.237-.484-.237-.726 0-1.21-.237H8.436c-.484.474-.968.237-1.694.237v.237c0 .948 0 1.422-.242 1.896h2.42c2.42 0 2.178-.237 3.371-.237 0-.474 0-.948-.242-1.422h.017zm1.452-10.648s.242.237.242-3.08c-1.21 0-2.178 0-2.904.71 0 .474-.242.948-.242 1.422-.242.237-.242.474 0 .711 0 .237 0 .474.242.474l.242.237c.726.474 1.21.474 2.178.711h.726v-.237c0-.71-.484-.71-.484-.948zm-6.758.948c.241-.474.725-1.185.967-1.422-.242-.237-.242-.474-.484-.71-.242-.238-.242-.712-.242-.949-.484.237-.726.474-1.21.474v3.318c.242-.474.726-.71.968-.71zm15.454-12.052c-.726.237-1.452.237-2.42.237h-2.905s.242.237.242.474c.242.237.242.474.726.474h4.34v-1.185h.017zm-9.664-2.607c0-.71 0-1.185-.242-1.659v-.71h-1.452c-.968-.238-1.452-.238-2.178-.238 0 0 0 .237-.242.237-.484.237-.968.237-1.452.237h-.242v.237c0 .948 0 1.422-.242 2.133.484.711 1.452 0 2.42 0 .726.237 1.21.237 1.936.474.242 0 .242.237.484.237l.242-.237h1.21c-.242-.237-.242-.474-.242-.711zM10.856 3.775c0 .474-.242.948-.242 1.659v.71c0 .238.242.238.242.475h.242c.484.474.968.474 1.694.71V4.013c.242-.237.726-.474 1.452-.711-1.21-.237-2.42-.237-3.37.474h-.018zM7.243 4.96c0-.237 0-.474-.242-.948-.484.474-.968.71-1.694.71H3.371c.242 0 .484.238.484.238.726.237 1.21.71 1.21 1.422v1.896s.242-.237.484-.237c.484-.237.968-.711 1.452-.711.242-.474.484-1.185.726-1.66-.242-.236-.242-.473-.484-.71z" fill="#DFC9F2"/></svg>